<?xml version="1.0" standalone="no"?>
<!DOCTYPE svg PUBLIC "-//W3C//DTD SVG 20010904//EN"
 "http://www.w3.org/TR/2001/REC-SVG-20010904/DTD/svg10.dtd">
<svg version="1.0" xmlns="http://www.w3.org/2000/svg"
 width="1920.000000pt" height="1920.000000pt" viewBox="0 0 1920.000000 1920.000000"
 preserveAspectRatio="xMidYMid meet">
<metadata>
Created by potrace 1.11, written by Peter Selinger 2001-2013
</metadata>
<g transform="translate(0.000000,1920.000000) scale(0.100000,-0.100000)"
fill="#000000" stroke="none">
<path d="M2193 19185 c0 -8 4 -15 9 -15 4 0 8 -13 8 -30 0 -16 5 -30 10 -30 6
0 10 -13 10 -30 0 -16 5 -30 10 -30 6 0 10 -13 10 -30 0 -16 5 -30 10 -30 6 0
10 -9 10 -20 0 -11 5 -20 10 -20 6 0 10 -9 10 -20 0 -11 5 -20 10 -20 6 0 10
-13 10 -30 0 -16 5 -30 10 -30 5 0 9 -3 9 -7 -3 -20 2 -34 11 -28 6 3 10 -2
10 -13 0 -10 3 -22 8 -26 4 -4 7 -11 8 -14 2 -16 18 -48 32 -64 8 -10 12 -18
9 -18 -4 0 3 -11 15 -25 20 -23 26 -42 30 -85 3 -34 -20 -72 -36 -62 -5 3 -6
0 -2 -7 4 -6 -14 -55 -42 -109 -27 -53 -47 -103 -45 -109 3 -7 -2 -16 -11 -19
-8 -3 -12 -12 -9 -20 3 -8 0 -14 -6 -14 -6 0 -11 -8 -11 -17 0 -10 -7 -26 -15
-36 -7 -11 -11 -25 -8 -33 3 -8 0 -14 -6 -14 -6 0 -11 -13 -11 -30 0 -16 -5
-30 -11 -30 -6 0 -9 -7 -5 -15 3 -9 0 -15 -8 -15 -9 0 -13 -10 -12 -30 1 -18
-4 -32 -12 -35 -9 -3 -13 -14 -10 -30 3 -15 0 -26 -9 -29 -8 -3 -12 -10 -9
-15 3 -5 0 -11 -8 -14 -9 -4 -13 -17 -10 -41 2 -27 -1 -36 -12 -36 -9 0 -14
-6 -11 -12 2 -7 -1 -24 -7 -38 -6 -14 -11 -34 -11 -45 0 -11 -5 -26 -12 -33
-7 -8 -10 -18 -7 -23 3 -6 -2 -17 -12 -24 -13 -10 -15 -14 -5 -15 11 0 11 -3
1 -15 -7 -8 -9 -15 -5 -15 5 0 0 -9 -9 -19 -13 -15 -14 -20 -4 -24 10 -3 8
-12 -9 -34 -13 -19 -18 -35 -13 -43 5 -8 2 -19 -6 -28 -8 -8 -14 -26 -12 -41
2 -15 -4 -33 -15 -44 -13 -13 -15 -22 -8 -31 7 -9 7 -18 -2 -32 -7 -10 -13
-31 -12 -46 0 -15 -4 -29 -11 -32 -7 -3 -10 -19 -7 -40 2 -26 0 -36 -10 -36
-10 0 -13 -13 -12 -46 2 -30 -2 -47 -10 -51 -8 -2 -12 -16 -10 -31 1 -15 -2
-32 -7 -39 -6 -7 -11 -32 -11 -55 -1 -24 -6 -49 -10 -56 -5 -7 -9 -42 -9 -78
0 -35 -5 -64 -10 -64 -6 0 -8 -7 -4 -15 3 -8 2 -15 -2 -15 -4 0 -6 -31 -5 -70
1 -38 -3 -70 -8 -70 -13 0 -12 -467 1 -475 6 -4 10 -14 9 -23 -5 -54 2 -123
12 -116 8 4 10 -8 8 -40 -3 -31 0 -47 9 -51 8 -3 11 -17 9 -39 -3 -24 0 -37
10 -40 8 -3 13 -11 12 -18 -3 -29 2 -49 11 -43 7 4 9 -3 6 -20 -3 -16 0 -28 9
-31 7 -3 12 -16 10 -31 -1 -14 4 -27 11 -30 8 -3 12 -9 9 -13 -3 -5 1 -14 8
-22 8 -7 13 -21 11 -31 -1 -9 2 -17 8 -17 5 0 8 -10 6 -22 -2 -14 2 -22 10
-21 6 2 12 -3 12 -10 0 -22 31 -78 46 -84 27 -10 -4 -43 -41 -43 -18 0 -37 -5
-40 -10 -4 -6 -29 -10 -57 -9 -31 2 -52 -2 -57 -10 -9 -14 -201 -10 -303 6
-32 5 -58 6 -58 3 0 -4 -13 -5 -30 -2 -16 2 -30 8 -30 12 0 4 -30 8 -67 9 -37
1 -70 6 -73 11 -3 4 -24 7 -48 7 -23 -1 -42 3 -42 8 0 6 -16 11 -36 12 -20 0
-39 5 -43 11 -3 5 -21 9 -38 7 -18 -1 -33 1 -33 6 0 5 -11 11 -25 15 -14 3
-23 9 -21 13 3 4 -24 7 -60 6 -44 0 -64 -4 -65 -12 -1 -7 -2 -19 -3 -25 -1 -7
9 -21 21 -31 13 -10 20 -23 17 -29 -4 -7 -2 -8 4 -4 6 4 17 -2 24 -14 7 -11
20 -20 28 -20 9 0 22 -9 30 -19 7 -11 17 -18 21 -15 4 2 19 -7 33 -21 15 -14
31 -23 36 -20 6 3 13 -1 16 -9 3 -9 10 -14 14 -11 5 3 15 -2 24 -11 9 -8 20
-13 25 -9 6 3 14 -2 19 -11 5 -9 13 -16 18 -16 22 -1 64 -21 64 -30 0 -5 5 -6
10 -3 6 3 10 1 10 -5 0 -6 8 -10 18 -9 25 4 63 -11 57 -22 -3 -5 1 -6 9 -3 9
3 16 1 16 -5 0 -6 14 -11 30 -11 17 0 30 -4 30 -9 0 -5 11 -8 25 -6 15 1 29
-4 35 -14 4 -9 12 -13 16 -9 3 4 18 1 33 -6 14 -7 44 -12 66 -11 22 1 43 -3
47 -9 3 -5 33 -10 65 -11 32 0 67 -5 78 -11 27 -13 444 -11 453 2 10 15 114
12 119 -3 3 -7 20 -20 38 -29 19 -9 37 -25 40 -36 4 -10 12 -17 18 -15 10 3
29 -8 84 -53 7 -5 19 -7 27 -4 11 4 16 0 16 -11 0 -12 6 -16 19 -12 12 3 22
-1 25 -10 4 -9 13 -13 22 -9 8 3 12 2 9 -4 -3 -6 -1 -11 4 -11 6 -1 16 -2 21
-3 6 0 15 -8 20 -16 5 -8 10 -11 10 -7 0 5 20 -3 45 -17 25 -13 43 -21 40 -16
-3 6 1 7 9 4 9 -3 16 -10 16 -15 0 -5 3 -8 8 -8 27 5 61 -4 78 -18 10 -10 30
-20 44 -21 14 -2 30 -7 35 -11 6 -4 17 -7 25 -6 8 0 18 -4 22 -9 4 -6 24 -11
44 -12 20 -2 40 -7 43 -12 3 -4 32 -8 63 -7 36 1 59 -3 62 -10 2 -7 22 -11 50
-10 25 2 46 -1 46 -6 0 -5 0 -11 0 -15 -1 -3 13 -18 30 -34 16 -15 30 -33 30
-39 0 -6 14 -24 31 -40 17 -16 30 -32 30 -35 -3 -20 0 -26 9 -21 6 3 10 1 10
-4 0 -16 33 -51 47 -51 7 0 13 -7 13 -15 0 -8 12 -21 28 -29 15 -8 23 -15 19
-16 -4 0 8 -14 28 -31 19 -17 32 -36 28 -42 -3 -5 -1 -7 5 -3 6 3 17 -3 25
-15 8 -11 21 -21 28 -23 23 -3 39 -16 39 -32 0 -9 -5 -12 -12 -8 -7 5 -9 2 -5
-9 3 -8 0 -21 -8 -27 -8 -6 -12 -17 -9 -24 3 -8 -2 -20 -10 -29 -8 -8 -12 -17
-9 -21 10 -9 -38 -106 -74 -152 -18 -22 -29 -45 -25 -49 4 -5 2 -5 -5 -1 -15
8 -37 -30 -27 -46 4 -7 3 -8 -4 -4 -6 4 -17 -2 -24 -14 -7 -11 -19 -20 -26
-20 -7 0 -35 -22 -62 -50 -27 -27 -54 -50 -61 -50 -6 0 -24 -14 -39 -30 -16
-17 -32 -30 -35 -28 -3 2 -17 -7 -30 -20 -14 -13 -29 -21 -35 -17 -5 3 -10 1
-10 -4 0 -6 -6 -11 -14 -11 -8 0 -22 -7 -31 -16 -12 -12 -19 -13 -29 -5 -10 9
-15 8 -20 -5 -4 -9 -9 -14 -12 -11 -4 3 -13 0 -21 -8 -8 -8 -25 -15 -39 -15
-14 0 -27 -7 -30 -15 -4 -8 -10 -12 -16 -9 -20 13 -59 12 -54 -2 4 -9 -8 -12
-45 -10 -28 1 -49 -3 -49 -9 0 -5 -19 -10 -42 -10 -24 0 -49 -4 -57 -10 -8 -6
-101 -10 -231 -10 -176 -1 -219 -3 -232 -15 -14 -14 -13 -17 11 -40 14 -13 31
-23 37 -22 6 1 17 -4 23 -12 6 -8 21 -12 31 -9 11 3 20 0 20 -6 0 -6 11 -11
24 -11 14 0 28 -5 32 -11 3 -6 17 -9 30 -6 16 3 24 0 24 -9 0 -9 14 -13 46
-12 25 0 49 -4 53 -9 3 -5 30 -10 60 -11 30 0 57 -5 60 -10 8 -12 290 -10 299
3 4 6 30 10 57 10 28 -1 53 3 56 7 3 5 23 9 45 10 21 1 48 7 59 14 12 8 26 10
34 4 9 -5 19 -3 28 6 8 8 25 14 39 14 13 0 24 5 24 10 0 6 13 10 29 10 17 0
33 5 37 11 3 6 15 9 25 6 11 -3 19 -1 19 4 0 5 11 11 25 15 14 3 25 11 25 16
0 6 6 8 14 5 7 -3 23 1 35 9 11 8 21 12 21 8 0 -4 9 1 20 11 11 10 20 14 20
10 0 -4 8 -1 18 8 10 10 22 14 25 10 4 -3 7 -1 7 5 0 7 7 12 15 12 8 0 24 9
35 20 11 11 22 20 25 20 3 0 10 0 16 0 5 0 7 5 4 10 -3 6 1 10 9 10 9 0 16 5
16 10 0 6 8 10 18 8 9 -2 16 3 15 10 -2 6 1 12 7 12 5 0 23 14 40 30 17 16 35
30 39 30 12 0 181 168 181 179 0 6 9 8 19 6 11 -2 22 3 26 13 5 14 7 14 15 2
5 -8 20 -15 32 -15 19 0 23 -6 25 -34 1 -19 5 -37 10 -40 5 -3 10 -39 10 -80
1 -40 5 -76 10 -80 13 -9 14 -143 1 -159 -7 -7 -11 -51 -11 -102 0 -58 -4 -93
-12 -100 -6 -5 -10 -25 -9 -44 2 -20 -3 -48 -11 -63 -9 -17 -11 -31 -5 -38 6
-8 5 -18 -5 -31 -8 -10 -15 -29 -15 -41 0 -12 -4 -25 -10 -28 -6 -3 -10 -15
-10 -26 0 -21 -19 -60 -35 -71 -5 -4 -6 -10 -3 -14 4 -3 1 -13 -7 -20 -8 -8
-12 -23 -10 -34 2 -12 -2 -20 -10 -20 -8 0 -12 -6 -9 -14 3 -7 -2 -21 -11 -30
-9 -9 -13 -16 -9 -16 4 0 -2 -10 -13 -22 -11 -13 -24 -33 -28 -45 -3 -13 -11
-23 -16 -23 -6 0 -8 -4 -5 -9 6 -9 -52 -71 -66 -71 -5 0 -7 -3 -5 -7 3 -5 -1
-14 -9 -21 -8 -7 -14 -9 -14 -5 0 4 -8 -8 -18 -27 -10 -20 -27 -37 -42 -41
-14 -4 -22 -7 -19 -8 4 -1 -9 -18 -30 -39 -20 -21 -39 -36 -43 -34 -5 2 -8 -1
-8 -7 0 -6 -6 -8 -14 -5 -9 3 -17 -3 -21 -15 -3 -12 -13 -21 -21 -21 -8 0 -26
-12 -41 -26 -22 -22 -75 -51 -80 -42 0 2 -13 -10 -27 -25 -14 -15 -30 -26 -35
-23 -5 3 -11 -1 -15 -9 -3 -8 -12 -12 -19 -9 -8 3 -17 -2 -20 -10 -4 -9 -13
-13 -20 -10 -8 3 -17 -2 -21 -11 -3 -9 -10 -14 -16 -10 -5 3 -19 -4 -31 -16
-12 -12 -32 -21 -45 -21 -13 0 -24 -4 -24 -9 0 -5 -7 -9 -15 -9 -8 0 -15 -5
-15 -11 0 -6 -7 -8 -15 -5 -9 3 -18 -1 -21 -9 -4 -8 -14 -15 -24 -15 -11 0
-22 -5 -25 -11 -4 -6 -13 -8 -21 -5 -7 3 -19 0 -26 -7 -7 -7 -24 -14 -38 -16
-14 -1 -27 -7 -30 -12 -3 -5 -16 -7 -28 -4 -12 2 -22 0 -22 -4 0 -11 -52 -35
-75 -34 -11 0 -23 -4 -27 -11 -4 -6 -17 -11 -28 -11 -11 0 -24 -4 -28 -10 -4
-5 -23 -10 -42 -10 -19 0 -34 -4 -33 -10 1 -5 -14 -10 -33 -10 -19 0 -34 4
-34 9 0 5 -11 -1 -24 -13 -16 -15 -26 -19 -31 -11 -5 8 -10 8 -20 0 -10 -8
-15 -8 -21 1 -5 9 -10 9 -18 -2 -12 -15 -32 -22 -56 -20 -53 4 -115 -1 -127
-10 -7 -6 -20 -9 -28 -5 -8 3 -15 1 -15 -5 0 -6 -6 -7 -12 -2 -16 9 -45 10
-80 1 -15 -3 -30 -3 -32 1 -6 9 -68 7 -83 -2 -6 -4 -14 -4 -16 0 -3 5 -65 7
-139 6 -161 -2 -148 -1 -148 -14 0 -16 59 -71 69 -65 5 4 12 -3 16 -14 4 -13
15 -20 31 -20 14 0 24 -6 24 -14 0 -10 7 -12 22 -8 14 3 19 2 14 -6 -5 -8 0
-12 13 -12 11 0 23 -4 26 -10 3 -5 17 -10 31 -10 13 0 24 -4 24 -10 0 -5 17
-9 37 -8 20 1 39 -4 41 -10 2 -7 21 -12 43 -12 21 0 39 -4 39 -9 0 -6 22 -9
50 -7 28 1 51 -2 53 -8 2 -7 37 -11 84 -12 44 -1 87 -5 94 -10 22 -13 410 -12
416 2 2 7 22 10 54 7 27 -2 60 2 72 8 12 7 47 12 77 12 30 0 63 5 72 12 10 6
38 10 63 8 26 -2 45 1 45 7 0 5 23 10 51 10 31 0 48 4 44 10 -4 6 6 10 22 11
36 2 44 3 66 13 9 5 26 6 37 3 11 -3 21 1 24 10 4 11 16 14 37 11 19 -3 33 0
35 7 3 7 21 12 44 11 21 -1 36 2 34 6 -5 7 3 10 22 7 4 0 10 4 13 10 4 5 19
12 35 15 16 3 32 10 36 16 4 6 14 8 22 5 8 -3 24 2 33 12 10 10 20 17 22 16 8
-7 24 -2 19 6 -3 4 6 7 19 5 14 -1 31 3 38 10 7 7 18 11 26 8 8 -3 11 0 8 6
-4 5 2 12 13 15 33 9 24 -29 -17 -74 -21 -23 -38 -45 -38 -50 0 -5 -12 -20
-28 -34 -15 -14 -27 -31 -27 -37 0 -6 -12 -21 -27 -34 -15 -13 -28 -32 -28
-41 0 -10 -6 -17 -12 -15 -7 1 -13 -2 -13 -6 0 -5 -9 -19 -20 -32 -11 -12 -18
-26 -15 -29 2 -4 -8 -16 -22 -26 -24 -18 -48 -61 -45 -78 1 -4 -1 -6 -5 -5
-12 4 -50 -37 -46 -48 2 -6 -10 -20 -27 -33 -17 -12 -28 -25 -26 -30 3 -4 -11
-24 -30 -45 -19 -20 -34 -33 -34 -29 0 4 -4 1 -10 -7 -6 -9 -5 -19 2 -28 6 -7
7 -12 2 -10 -5 2 -22 -7 -38 -19 -16 -13 -25 -23 -21 -23 4 0 2 -6 -4 -13 -6
-8 -8 -16 -5 -20 3 -3 -4 -8 -15 -12 -11 -3 -18 -12 -15 -19 3 -7 -10 -26 -29
-42 -19 -15 -32 -34 -30 -41 3 -7 0 -13 -6 -13 -6 0 -11 -6 -11 -14 0 -7 -9
-16 -20 -19 -11 -3 -20 -14 -20 -24 0 -10 -9 -25 -20 -33 -11 -8 -20 -21 -20
-28 0 -8 -14 -27 -31 -43 -17 -16 -28 -29 -25 -29 4 0 -5 -16 -20 -35 -14 -19
-23 -35 -19 -35 4 0 -2 -8 -13 -17 -12 -10 -22 -25 -24 -33 -2 -8 -16 -27 -33
-42 -16 -15 -26 -28 -22 -28 4 0 -3 -11 -14 -24 -12 -13 -20 -27 -19 -31 1 -4
-10 -20 -25 -35 -15 -15 -25 -30 -23 -32 5 -6 -39 -58 -50 -58 -10 0 -26 -29
-24 -42 1 -4 -9 -15 -21 -25 -13 -10 -22 -23 -20 -29 2 -6 -9 -22 -24 -36 -15
-13 -29 -31 -31 -39 -2 -7 -12 -22 -23 -32 -11 -10 -17 -22 -15 -26 3 -4 -4
-14 -15 -21 -10 -8 -19 -20 -19 -27 0 -19 -48 -66 -60 -58 -6 4 -7 12 -1 24 7
13 5 22 -10 35 -16 14 -18 20 -9 32 10 11 9 14 -5 14 -12 0 -16 6 -12 20 3 13
-1 21 -15 26 -13 4 -17 9 -10 16 10 10 -20 75 -41 89 -4 3 -10 15 -11 25 -2
10 -9 18 -15 16 -6 -1 -11 2 -11 6 0 16 -37 52 -54 52 -9 0 -16 5 -16 10 0 6
-9 10 -20 10 -11 0 -20 4 -20 10 0 6 -24 9 -55 9 -30 -1 -55 -6 -55 -11 0 -6
-11 -8 -25 -6 -14 3 -25 1 -25 -3 0 -5 -7 -6 -15 -3 -8 4 -15 1 -15 -5 0 -6
-9 -11 -20 -11 -11 0 -20 -5 -20 -11 0 -6 -6 -9 -14 -6 -8 3 -17 -1 -20 -9 -3
-8 -15 -14 -26 -14 -13 0 -19 -4 -14 -11 4 -7 1 -10 -7 -7 -8 3 -27 -6 -42
-19 -16 -13 -33 -21 -38 -17 -5 3 -9 -2 -9 -10 0 -8 -9 -18 -20 -21 -11 -4
-18 -11 -15 -16 4 -5 0 -9 -8 -9 -8 0 -18 -7 -21 -16 -3 -8 -10 -13 -16 -9 -5
3 -21 -12 -35 -35 -14 -22 -30 -40 -37 -40 -6 0 -8 -3 -5 -7 4 -3 -2 -13 -14
-21 -11 -8 -18 -20 -15 -28 3 -8 -1 -14 -8 -14 -8 0 -16 -5 -18 -11 -6 -17
-79 -18 -106 -2 -12 8 -27 11 -32 8 -6 -3 -10 0 -10 9 0 8 -7 13 -17 11 -24
-3 -72 22 -103 54 -22 22 -33 26 -75 24 -41 -2 -54 -7 -72 -30 -13 -15 -21
-34 -18 -41 3 -7 1 -10 -4 -7 -11 6 -43 -34 -36 -46 3 -4 -2 -10 -11 -13 -8
-3 -13 -10 -10 -15 3 -5 -1 -14 -9 -21 -8 -7 -12 -16 -9 -21 3 -5 -2 -16 -10
-25 -9 -9 -13 -20 -10 -26 4 -6 1 -14 -6 -18 -17 -11 -20 -290 -3 -290 8 0 11
-15 9 -46 -2 -31 2 -48 11 -51 7 -3 11 -9 8 -13 -3 -5 2 -15 11 -24 8 -9 12
-21 9 -27 -4 -5 1 -19 12 -31 10 -11 17 -22 16 -24 -6 -10 11 -34 23 -34 8 0
14 -6 14 -14 0 -8 9 -18 21 -21 16 -5 18 -10 8 -21 -8 -10 -8 -14 0 -14 22 0
26 -2 43 -17 11 -9 16 -25 14 -38 -2 -13 2 -32 10 -44 9 -12 13 -25 9 -30 -3
-5 1 -15 8 -23 7 -7 12 -20 12 -28 -1 -8 5 -24 12 -36 7 -11 10 -24 6 -27 -3
-4 -1 -7 5 -7 7 0 12 -6 12 -14 0 -7 7 -19 15 -26 8 -7 13 -16 10 -20 -3 -5
-1 -11 5 -15 5 -3 10 -17 10 -29 0 -13 7 -29 15 -36 13 -11 13 -15 3 -21 -7
-5 -8 -9 -2 -9 5 0 20 -9 32 -21 13 -11 38 -27 57 -35 19 -8 35 -19 35 -25 0
-5 4 -8 9 -5 5 3 12 -1 15 -10 3 -8 10 -13 15 -10 5 4 21 -7 34 -24 14 -16 32
-30 41 -30 8 0 21 -9 29 -20 8 -11 17 -17 20 -14 3 4 13 -1 22 -10 9 -9 21
-14 26 -10 5 3 12 -1 14 -9 4 -10 21 -13 60 -11 38 2 60 -2 70 -12 8 -9 15
-12 15 -8 0 4 6 0 13 -10 9 -12 13 -54 12 -137 0 -92 3 -119 13 -119 7 0 11
-4 7 -9 -3 -5 2 -17 11 -25 8 -9 12 -16 7 -16 -4 0 4 -8 18 -18 14 -9 25 -25
24 -34 -2 -10 6 -19 21 -22 13 -4 36 -20 51 -36 14 -16 29 -27 34 -25 4 3 10
1 14 -4 3 -5 14 -8 25 -6 11 2 22 0 25 -6 4 -5 17 -9 30 -9 13 0 26 -4 30 -10
3 -5 21 -8 41 -6 19 1 39 -3 45 -10 6 -7 28 -12 50 -11 21 2 39 -1 39 -6 0 -4
6 -5 12 -1 18 11 268 11 268 0 0 -5 6 -3 14 3 15 13 32 -1 22 -18 -3 -5 1 -12
10 -15 15 -6 15 -8 -1 -26 -10 -11 -15 -20 -11 -20 3 0 -1 -14 -10 -31 -9 -18
-11 -28 -4 -24 9 5 10 2 3 -11 -11 -25 -9 -164 3 -172 5 -4 9 -16 9 -27 0 -11
4 -26 10 -34 5 -8 10 -27 11 -44 1 -17 10 -36 20 -44 10 -7 19 -20 20 -29 3
-19 63 -73 82 -74 6 0 12 -8 12 -17 0 -14 2 -15 9 -5 7 11 11 11 22 -1 8 -7
22 -13 31 -11 9 1 15 -3 12 -10 -5 -14 197 -18 207 -4 3 5 22 10 43 11 21 2
42 10 47 18 5 8 9 10 9 5 0 -6 5 -5 12 2 7 7 20 12 30 12 10 0 18 7 18 15 0 9
6 12 16 8 9 -3 19 0 24 6 4 7 14 13 22 15 9 1 23 8 32 15 9 7 16 10 16 6 0 -4
7 -2 15 5 8 6 19 9 25 5 5 -3 10 -2 10 2 0 10 55 35 84 38 10 1 21 7 25 13 4
6 19 9 34 6 18 -3 29 0 33 9 3 9 17 13 35 12 18 -2 29 2 29 10 0 9 8 11 23 8
12 -3 19 -2 14 2 -9 11 47 35 80 35 16 0 22 4 17 12 -5 8 0 9 15 5 13 -3 20
-3 17 0 -3 4 -1 12 5 19 8 9 18 10 35 3 14 -5 23 -5 20 0 -7 11 14 20 32 14 8
-3 -3 -18 -28 -40 -22 -20 -37 -40 -33 -47 3 -6 3 -8 -2 -4 -4 4 -18 -4 -31
-17 -13 -14 -28 -25 -34 -25 -6 0 -8 -4 -5 -10 3 -5 1 -10 -5 -10 -7 0 -10 -5
-8 -12 3 -7 -11 -27 -30 -44 -19 -17 -32 -36 -28 -42 3 -5 0 -12 -8 -15 -15
-6 -13 -81 2 -100 5 -7 8 -20 7 -29 -2 -9 3 -19 10 -22 8 -3 11 -13 8 -25 -3
-13 -1 -21 6 -21 7 0 10 -4 7 -8 -3 -5 6 -15 19 -22 13 -7 22 -17 19 -22 -3
-4 0 -8 6 -8 7 0 21 -11 32 -25 11 -14 23 -23 28 -20 5 3 17 -6 28 -20 11 -13
22 -21 26 -18 3 3 29 -17 57 -46 30 -31 57 -50 65 -47 8 3 14 0 14 -7 0 -16
38 -39 51 -32 5 4 8 2 7 -3 -2 -6 2 -11 7 -11 6 -1 20 -9 32 -17 13 -8 23 -12
23 -9 0 4 7 -1 16 -10 9 -9 24 -13 35 -10 13 4 19 2 19 -8 0 -10 9 -13 32 -11
37 5 52 -12 33 -39 -7 -10 -11 -26 -8 -36 3 -11 -2 -21 -12 -25 -9 -3 -14 -10
-10 -15 3 -5 1 -12 -5 -16 -5 -3 -10 -17 -10 -31 0 -13 -4 -24 -10 -24 -5 0
-10 -13 -10 -30 0 -16 -4 -30 -10 -30 -5 0 -10 -9 -10 -20 0 -11 -5 -20 -11
-20 -6 0 -9 -12 -7 -27 2 -17 -2 -27 -9 -26 -6 1 -10 -8 -8 -22 1 -14 -4 -30
-12 -37 -8 -6 -12 -17 -9 -24 3 -7 -2 -15 -10 -18 -10 -4 -13 -13 -9 -25 3
-10 -1 -23 -9 -30 -8 -7 -13 -21 -11 -32 2 -12 -2 -23 -11 -26 -10 -4 -14 -13
-10 -26 2 -11 -2 -26 -10 -34 -8 -8 -12 -19 -9 -24 4 -5 1 -9 -4 -9 -6 0 -11
-9 -11 -19 0 -27 -11 -52 -20 -46 -5 3 -6 -4 -3 -15 3 -11 -2 -27 -12 -36 -12
-12 -13 -19 -5 -24 8 -5 6 -9 -5 -14 -9 -3 -15 -12 -12 -20 3 -7 1 -18 -4 -23
-5 -5 -12 -23 -15 -39 -3 -16 -8 -31 -12 -34 -4 -3 -7 -12 -7 -20 1 -8 -5 -25
-12 -36 -8 -12 -13 -26 -11 -30 1 -5 -3 -19 -10 -32 -7 -12 -11 -26 -8 -31 3
-5 -1 -14 -9 -21 -8 -7 -12 -16 -9 -21 3 -5 -1 -12 -9 -14 -7 -3 -13 -16 -12
-28 1 -12 -4 -31 -12 -43 -7 -11 -10 -23 -7 -27 4 -3 -1 -13 -9 -21 -8 -9 -13
-25 -10 -36 3 -11 0 -20 -6 -20 -6 0 -11 -9 -11 -20 0 -11 -9 -36 -20 -55 -11
-20 -20 -42 -19 -48 4 -31 -2 -58 -11 -52 -5 3 -10 -3 -10 -14 0 -12 -4 -21
-9 -21 -5 0 -8 -12 -6 -26 1 -14 -3 -28 -11 -31 -7 -2 -11 -10 -8 -18 3 -7 -1
-19 -8 -26 -7 -8 -13 -21 -13 -29 1 -8 -4 -26 -11 -40 -6 -14 -10 -33 -9 -42
2 -9 -3 -19 -11 -22 -7 -3 -11 -14 -9 -26 2 -11 0 -20 -6 -20 -5 0 -9 -13 -9
-29 0 -16 -5 -31 -11 -33 -14 -5 -19 -58 -6 -58 6 0 1 -9 -11 -21 -12 -11 -20
-24 -17 -30 4 -5 2 -9 -2 -9 -5 0 -10 -14 -11 -32 -2 -17 -7 -36 -11 -42 -10
-12 -11 -16 -11 -42 0 -8 -4 -13 -9 -9 -5 3 -8 -8 -6 -24 3 -20 -1 -31 -12
-35 -10 -4 -13 -14 -9 -29 3 -13 0 -32 -8 -42 -8 -11 -11 -25 -9 -32 3 -8 -1
-21 -9 -31 -8 -9 -14 -24 -13 -32 0 -8 -4 -18 -9 -22 -5 -3 -10 -30 -9 -60 0
-29 -4 -56 -10 -60 -6 -3 -10 -26 -10 -50 0 -23 -4 -48 -9 -55 -6 -7 -10 -35
-10 -62 1 -28 -3 -53 -9 -56 -5 -4 -9 -35 -9 -71 0 -40 -4 -64 -11 -64 -7 0
-9 -10 -5 -25 4 -14 2 -25 -2 -25 -5 0 -7 -11 -4 -25 2 -14 0 -25 -6 -25 -6 0
-11 -28 -11 -71 0 -39 -4 -76 -9 -82 -5 -7 -9 -63 -9 -125 0 -63 -4 -117 -10
-120 -13 -10 -11 -728 2 -725 6 1 10 -31 9 -80 -1 -45 3 -85 8 -88 4 -3 9 -29
10 -58 2 -32 8 -55 15 -58 7 -3 10 -9 7 -15 -5 -8 -6 -244 -1 -272 1 -6 5 -13
9 -16 4 -3 8 -45 9 -93 1 -49 6 -87 12 -87 5 0 4 -6 -3 -15 -8 -9 -10 -37 -6
-87 3 -40 8 -104 10 -142 3 -38 9 -72 14 -75 5 -3 8 -35 8 -70 -1 -41 3 -65
11 -68 8 -3 12 -26 11 -63 -1 -32 3 -65 9 -72 6 -7 9 -33 8 -58 -1 -25 3 -48
8 -52 6 -4 11 -28 12 -55 1 -27 5 -55 10 -62 4 -8 9 -36 9 -63 1 -27 6 -52 12
-56 6 -4 10 -23 9 -42 -1 -19 2 -40 6 -46 5 -6 10 -20 12 -31 2 -12 8 -28 15
-35 6 -8 9 -18 5 -21 -3 -4 -1 -7 5 -7 7 0 12 -9 12 -20 0 -17 7 -20 40 -20
22 0 40 4 40 9 0 6 17 11 38 13 20 2 38 9 38 16 1 6 2 17 3 24 0 6 4 9 7 5 11
-11 33 17 23 29 -6 8 -4 14 6 18 8 3 15 12 15 21 0 8 5 15 11 15 5 0 8 4 4 10
-3 5 3 18 15 30 11 11 15 20 8 20 -6 0 -4 7 5 18 10 10 17 24 17 30 0 7 5 12
11 12 6 0 9 6 7 12 -3 7 1 19 9 26 7 8 11 17 8 22 -3 4 2 11 11 14 8 3 12 10
9 16 -3 6 1 17 9 26 9 9 14 19 11 24 -3 4 2 11 11 14 8 3 13 10 10 14 -3 5 5
24 18 43 13 19 21 40 19 47 -3 6 0 12 6 12 6 0 11 7 11 15 0 8 5 15 11 15 5 0
7 5 4 10 -3 6 0 10 7 10 9 0 9 3 -2 10 -13 8 -12 10 4 10 11 0 16 5 13 14 -3
7 6 24 20 36 14 12 22 28 19 36 -3 9 -1 12 4 9 9 -6 14 8 11 28 -1 4 5 10 13
13 8 3 13 11 10 19 -3 7 2 15 10 18 9 4 13 13 10 20 -3 8 2 17 10 20 9 4 13
13 10 22 -3 8 -1 15 5 15 6 0 11 7 11 15 0 8 5 15 11 15 5 0 8 4 4 9 -3 5 -1
12 5 16 6 4 8 11 5 16 -4 5 -1 9 5 9 6 0 8 5 4 12 -5 7 -3 8 5 4 8 -5 14 0 18
13 3 12 10 21 15 21 6 0 8 7 4 15 -3 8 2 19 12 24 9 6 13 11 9 11 -4 0 -2 10
5 22 7 13 11 26 10 31 -1 4 3 7 9 7 5 0 17 16 25 35 8 21 19 33 25 29 7 -4 9
1 4 15 -3 11 -3 21 2 21 7 0 20 26 33 65 1 6 11 16 21 23 11 7 19 22 19 33 0
10 5 19 11 19 5 0 7 5 4 10 -3 6 1 13 9 16 9 3 13 10 10 15 -3 5 0 17 5 26 6
10 11 14 11 8 0 -5 9 4 20 20 11 17 20 25 20 19 0 -13 68 -8 86 6 15 13 63 9
75 -7 7 -8 18 -9 35 -3 13 5 24 6 24 1 0 -5 8 -7 19 -4 10 2 25 -2 33 -10 8
-8 21 -12 29 -8 13 7 32 7 44 1 13 -6 31 -5 42 2 6 5 14 4 18 -2 4 -6 12 -7
18 -3 15 10 38 10 55 0 7 -5 12 -3 13 5 0 7 4 3 10 -10 5 -14 13 -20 20 -16
16 9 79 11 79 2 0 -4 10 -4 23 1 14 5 30 5 40 0 11 -6 17 -6 17 0 0 11 89 4
104 -8 6 -5 19 -7 29 -6 9 2 17 -1 17 -6 0 -6 5 -7 12 -3 17 10 109 11 115 1
5 -9 34 27 50 63 8 19 7 28 -4 38 -7 7 -11 17 -8 23 4 5 -1 12 -9 15 -9 3 -13
10 -10 15 3 5 -2 16 -10 24 -8 9 -13 22 -10 29 3 8 1 17 -5 21 -6 3 -11 15
-11 26 0 10 -4 19 -10 19 -5 0 -10 9 -10 20 0 11 -9 36 -21 56 -11 20 -18 43
-15 51 3 7 -1 16 -10 20 -10 4 -13 15 -10 34 2 16 0 27 -4 24 -11 -7 -23 31
-15 45 3 6 -1 13 -10 16 -12 5 -14 15 -11 39 4 24 1 35 -10 39 -8 3 -14 14
-13 23 2 10 -2 27 -8 38 -6 11 -9 28 -8 38 2 9 -3 17 -10 17 -8 0 -12 11 -10
31 1 17 -3 36 -10 42 -6 6 -10 19 -8 28 3 9 -1 22 -9 30 -14 15 -16 38 -5 55
4 7 0 14 -8 18 -9 3 -15 19 -15 41 0 22 -6 38 -15 41 -11 4 -12 11 -5 23 6 12
5 24 -5 38 -8 11 -13 29 -11 39 2 11 -2 37 -9 57 -7 21 -12 46 -11 55 2 9 -3
22 -9 29 -7 7 -12 33 -11 60 1 27 -3 53 -10 60 -7 7 -11 30 -9 53 2 23 -2 46
-9 53 -7 6 -11 32 -11 57 1 25 -4 53 -10 62 -6 9 -10 46 -9 83 2 44 -1 68 -9
71 -8 3 -12 30 -11 82 1 42 -3 83 -9 90 -5 7 -9 51 -9 99 1 50 -3 90 -9 94
-12 7 -18 169 -6 169 5 0 5 5 2 10 -4 6 -7 40 -7 76 -1 35 -5 67 -9 70 -12 7
-11 941 0 949 6 3 9 44 8 90 -1 47 2 85 6 85 5 0 5 5 1 11 -10 17 -6 210 5
223 5 6 10 58 9 115 0 57 4 106 9 110 5 3 10 36 10 74 1 37 5 73 11 80 5 6 9
48 8 92 -1 47 3 85 10 92 6 6 10 32 9 57 -2 26 2 50 9 55 7 6 11 35 11 71 -1
37 3 64 9 66 6 2 11 30 12 61 0 32 5 58 11 60 6 2 9 15 7 29 -3 15 2 32 12 41
9 10 12 19 7 20 -12 4 -4 63 10 81 6 8 10 27 9 44 -1 16 2 27 7 24 5 -3 8 12
7 34 0 24 4 42 12 45 6 2 12 11 12 20 0 8 4 15 9 15 6 0 9 -18 7 -40 -2 -22 1
-43 5 -46 5 -3 5 -14 -1 -24 -5 -10 -7 -26 -4 -35 4 -9 0 -21 -10 -28 -14 -10
-15 -18 -7 -39 5 -14 7 -28 5 -31 -3 -3 -7 -11 -8 -19 -3 -12 -6 -22 -23 -65
-6 -18 -10 -37 -12 -74 -1 -12 -5 -17 -13 -13 -7 5 -9 0 -6 -14 3 -12 1 -23
-6 -26 -6 -2 -6 -5 -1 -5 10 -1 12 -87 2 -97 -3 -4 -2 -16 2 -28 9 -23 11 -30
11 -46 0 -20 73 -90 93 -90 11 0 18 -3 14 -6 -9 -10 21 -36 33 -29 6 3 13 -1
16 -10 4 -9 13 -14 20 -11 8 3 14 0 14 -6 0 -7 4 -7 14 1 11 9 15 8 20 -5 4
-11 13 -14 31 -10 19 5 23 3 19 -8 -4 -11 4 -14 38 -14 63 0 70 -1 64 -10 -7
-12 198 -10 206 1 3 6 28 11 55 12 61 2 93 16 125 54 14 16 29 27 32 24 6 -6
10 12 7 30 0 4 3 7 8 7 5 0 13 9 16 20 4 11 11 18 16 15 5 -4 9 1 9 9 0 8 9
18 21 21 11 4 18 9 15 12 -5 6 2 15 57 76 20 23 37 45 37 49 0 5 5 8 10 8 6 0
10 -8 10 -17 0 -9 3 -14 6 -11 13 13 67 -55 71 -90 3 -21 9 -39 13 -42 4 -3 7
-65 7 -138 -1 -78 3 -136 9 -140 6 -4 10 -76 10 -175 0 -99 5 -171 10 -175 6
-4 10 -49 9 -101 0 -54 4 -99 10 -105 6 -6 10 -56 10 -119 0 -63 4 -111 10
-115 12 -8 14 -153 3 -146 -9 6 -9 4 -13 -43 -1 -18 3 -34 9 -36 8 -3 11 -46
11 -132 -1 -80 3 -129 10 -131 8 -4 10 -35 4 -99 0 -5 1 -29 4 -51 3 -23 1
-47 -3 -54 -8 -13 9 -82 19 -76 8 5 6 -302 -2 -310 -3 -3 -2 -16 2 -28 8 -22
6 -98 -3 -122 -3 -8 2 -19 12 -25 15 -9 17 -26 14 -127 -2 -65 -3 -124 -3
-132 0 -8 1 -67 2 -130 0 -63 5 -120 11 -127 6 -7 8 -20 4 -28 -3 -8 -1 -15 5
-15 6 0 6 -7 -1 -20 -8 -14 -8 -20 0 -20 8 0 8 -6 0 -20 -6 -11 -7 -20 -3 -20
9 0 9 -57 0 -67 -4 -3 -2 -12 4 -19 6 -7 6 -14 0 -18 -5 -3 -7 -16 -3 -28 3
-14 1 -19 -6 -14 -7 4 -11 -14 -11 -57 0 -35 -1 -67 -2 -73 -1 -5 0 -13 1 -19
5 -23 -3 -90 -10 -95 -5 -3 -8 -32 -7 -64 2 -32 -2 -68 -8 -80 -6 -12 -11 -50
-10 -86 0 -36 -4 -74 -9 -85 -6 -11 -10 -41 -11 -66 0 -25 -5 -52 -11 -60 -6
-8 -10 -31 -9 -52 1 -22 -4 -41 -10 -43 -7 -3 -10 -29 -10 -67 1 -34 -3 -71
-9 -82 -5 -11 -9 -39 -8 -62 0 -24 -4 -48 -11 -55 -7 -7 -12 -29 -11 -48 0
-19 -3 -40 -7 -45 -5 -6 -9 -27 -11 -48 -1 -20 -8 -39 -14 -41 -7 -3 -10 -14
-7 -25 3 -12 0 -28 -7 -36 -7 -8 -10 -24 -7 -35 3 -11 0 -20 -6 -20 -8 0 -7
-3 1 -9 11 -6 10 -10 -3 -15 -13 -4 -16 -14 -13 -36 3 -18 -1 -35 -9 -41 -7
-7 -13 -31 -13 -55 0 -24 -4 -44 -8 -44 -4 0 -8 -21 -8 -46 -1 -25 -6 -49 -12
-53 -6 -4 -10 -23 -8 -43 2 -22 -1 -39 -8 -41 -8 -3 -12 -28 -11 -71 1 -40 -3
-67 -10 -69 -6 -3 -10 -35 -10 -87 0 -51 -4 -84 -10 -87 -7 -2 -11 -36 -9 -96
1 -58 -2 -99 -10 -112 -10 -17 -14 -134 -6 -170 1 -5 1 -14 0 -20 -7 -33 -3
-201 5 -207 7 -5 7 -8 0 -8 -12 0 -12 -191 0 -210 5 -8 4 -11 -3 -7 -6 5 -8 0
-5 -13 3 -11 8 -20 12 -20 4 0 7 -57 6 -127 -1 -71 3 -137 9 -148 6 -11 11
-72 11 -135 0 -63 6 -124 11 -135 6 -11 10 -60 9 -109 -1 -52 3 -93 10 -100 6
-6 10 -26 9 -43 l-1 -33 1415 0 c778 0 1412 3 1409 7 -4 3 -1 16 6 27 7 12 13
41 12 66 0 25 4 48 9 52 5 3 10 33 9 64 0 33 5 64 12 70 7 8 10 30 8 54 -2 24
1 48 8 56 6 8 12 36 12 62 0 26 4 53 10 60 5 7 10 35 10 62 -1 28 3 50 8 50 5
0 9 23 9 51 0 27 4 48 9 45 5 -3 9 20 10 51 0 31 5 59 10 63 6 3 9 33 8 67 -1
34 1 59 4 57 11 -6 16 18 15 68 -1 26 4 50 10 52 6 2 10 26 9 53 0 26 4 64 11
84 7 19 11 50 9 68 -1 17 3 37 9 44 6 7 11 35 10 62 0 28 4 59 11 70 6 11 10
48 9 82 -2 44 2 65 12 74 11 9 12 15 3 25 -6 8 -7 14 -2 14 5 0 9 19 7 42 -2
30 2 46 14 55 12 8 13 12 4 13 -7 0 -10 5 -6 11 10 16 11 69 2 97 -5 13 -3 22
3 22 6 0 8 4 5 9 -3 5 0 14 8 20 7 6 11 23 9 39 -2 15 -4 33 -4 40 1 16 1 59
0 75 0 18 5 40 14 55 5 6 6 16 2 21 -3 5 -1 12 4 15 4 3 5 24 1 46 -4 25 -4
40 3 40 5 0 4 6 -2 14 -8 10 -9 16 -1 21 7 4 7 12 0 26 -7 12 -7 19 -1 19 6 0
8 7 5 15 -4 8 -1 22 6 30 7 8 10 21 7 29 -3 7 0 19 6 25 8 8 8 11 -1 11 -10 0
-10 5 -2 20 6 11 7 20 2 20 -4 0 -8 9 -8 20 0 11 4 20 9 20 5 0 4 6 -2 14 -9
11 -9 20 -2 34 6 11 8 21 6 24 -12 11 -11 69 0 78 9 7 12 52 12 156 0 91 4
148 10 152 6 4 10 45 9 99 -1 58 3 94 10 97 6 2 10 30 9 66 0 40 4 64 11 67 7
2 11 14 9 25 -3 11 2 33 11 49 8 16 12 34 9 39 -3 6 -3 16 2 22 10 16 14 36
15 70 1 15 5 25 10 22 7 -5 13 27 9 50 -1 4 3 14 9 20 5 7 7 16 3 19 -3 4 -1
7 5 7 6 0 9 7 6 15 -4 9 3 23 15 34 12 11 21 23 20 27 -1 5 0 14 1 19 1 6 1
25 0 43 -1 17 3 32 8 32 5 0 10 31 10 69 0 87 10 133 25 125 9 -5 9 -4 1 5
-12 13 -7 51 6 51 4 0 7 16 5 35 -1 19 3 36 10 39 7 2 11 16 10 29 -2 14 3 28
9 30 7 3 12 18 11 34 -1 15 3 34 9 42 6 7 11 26 11 41 0 15 5 34 11 41 5 8 10
28 9 46 -1 18 2 30 6 28 11 -7 19 39 9 49 -6 6 -4 13 5 20 17 12 26 68 15 87
-10 14 -1 41 10 34 4 -3 10 4 13 15 3 11 1 23 -4 26 -5 3 -5 13 1 25 6 10 8
19 5 19 -4 0 0 7 9 15 11 12 13 22 6 39 -6 17 -5 26 3 29 7 3 14 19 15 37 1
18 6 38 10 44 3 6 7 24 8 40 1 15 7 32 14 36 7 4 10 15 7 25 -4 9 -1 28 7 43
7 15 12 35 11 44 -2 9 3 19 10 22 7 2 12 17 10 36 -2 19 3 34 10 37 8 2 12 15
9 29 -3 15 1 27 10 30 8 3 12 13 9 24 -3 10 0 21 6 24 6 4 11 18 11 32 0 40
34 27 38 -14 2 -17 8 -32 14 -32 6 0 8 -11 6 -25 -3 -15 -1 -25 7 -25 7 0 12
-15 13 -36 1 -20 6 -41 11 -48 5 -6 9 -24 9 -40 0 -15 4 -31 10 -35 6 -3 9
-19 8 -34 -2 -16 2 -34 10 -41 7 -7 11 -22 10 -32 -2 -10 2 -30 8 -44 6 -14
11 -34 11 -45 0 -11 3 -23 8 -26 5 -4 10 -25 11 -47 1 -22 7 -46 13 -54 7 -8
8 -19 4 -27 -9 -15 8 -83 19 -76 4 3 6 -9 4 -26 -2 -16 0 -27 5 -24 13 8 19
-26 9 -53 -4 -13 -5 -21 0 -19 4 3 13 -1 20 -9 8 -9 9 -14 2 -14 -12 0 6 -40
24 -52 8 -5 7 -8 -2 -8 -9 0 -9 -8 4 -31 8 -17 14 -40 11 -50 -3 -10 0 -20 6
-22 6 -2 11 -20 12 -41 1 -21 6 -41 12 -44 5 -4 9 -18 8 -31 -1 -14 4 -36 11
-50 8 -14 11 -33 9 -42 -3 -9 2 -22 10 -29 8 -7 13 -21 10 -30 -3 -9 1 -23 9
-29 9 -7 13 -23 10 -38 -3 -15 0 -29 5 -33 6 -3 12 -18 13 -33 1 -15 6 -27 10
-27 4 0 8 -16 8 -35 0 -19 4 -35 9 -35 13 0 20 -60 7 -60 -6 0 -3 -7 7 -14 9
-7 17 -25 17 -40 0 -14 4 -26 8 -26 5 0 9 -16 10 -36 1 -20 6 -42 12 -49 6 -7
9 -25 6 -39 -3 -19 0 -26 10 -26 11 0 13 -6 9 -19 -3 -11 1 -25 10 -34 9 -9
13 -28 11 -47 -2 -19 1 -33 9 -36 7 -3 12 -17 10 -31 -1 -13 3 -27 10 -29 7
-3 12 -13 10 -22 -1 -9 2 -20 7 -23 5 -3 9 -22 10 -42 1 -21 7 -42 15 -48 10
-9 10 -15 2 -25 -9 -11 -7 -15 5 -20 9 -3 13 -10 10 -15 -3 -5 -1 -9 4 -9 5 0
8 -12 7 -28 -1 -15 4 -34 12 -44 10 -11 11 -18 3 -23 -8 -5 -6 -10 5 -18 9 -7
16 -28 17 -50 1 -20 5 -37 10 -37 5 0 7 -16 5 -35 -2 -19 -1 -33 3 -30 10 6
39 -60 36 -81 -2 -11 2 -28 9 -39 7 -11 11 -32 10 -47 -1 -15 2 -25 7 -22 8 5
9 1 12 -34 0 -11 6 -25 12 -33 6 -8 10 -25 9 -39 -1 -14 4 -34 11 -46 8 -11
11 -24 7 -28 -4 -4 -2 -10 4 -14 7 -4 14 -19 17 -32 3 -14 9 -39 15 -57 5 -17
6 -34 3 -38 -4 -4 1 -11 10 -16 9 -5 14 -17 11 -28 -3 -10 0 -22 6 -25 6 -4
11 -18 11 -32 0 -13 4 -24 9 -24 5 0 9 -17 9 -37 0 -21 5 -39 11 -41 6 -2 11
-12 11 -23 0 -10 4 -19 8 -19 4 0 8 -10 9 -22 3 -37 25 -108 34 -108 4 0 6
-11 3 -24 -2 -13 2 -29 10 -35 8 -7 13 -21 11 -32 -3 -12 2 -19 12 -19 11 0
13 -3 5 -13 -8 -9 -6 -21 8 -42 10 -16 17 -32 14 -37 -3 -4 2 -17 10 -29 8
-12 12 -27 9 -35 -3 -7 3 -21 12 -31 12 -11 14 -18 6 -21 -9 -3 -9 -7 0 -18 6
-8 15 -12 19 -9 4 2 5 -13 3 -35 -3 -27 -1 -40 7 -40 7 0 10 -6 7 -14 -3 -8
-1 -16 5 -18 6 -2 12 -13 13 -24 1 -10 7 -30 14 -42 7 -13 10 -26 7 -30 -3 -3
1 -14 11 -24 9 -10 13 -18 9 -18 -3 0 0 -11 9 -24 8 -13 13 -30 10 -38 -4 -9
0 -22 8 -29 7 -8 12 -20 9 -28 -3 -8 0 -11 7 -7 7 5 11 -3 11 -23 0 -16 5 -33
10 -36 6 -3 10 -17 10 -31 0 -13 5 -24 11 -24 6 0 9 -9 6 -20 -3 -13 0 -20 9
-20 20 0 17 -13 -7 -28 -17 -11 -20 -11 -13 0 4 7 -4 2 -17 -12 -26 -27 -34
-80 -12 -80 7 0 13 -4 13 -9 0 -14 58 -70 66 -63 4 4 4 -3 1 -15 -3 -16 -1
-23 9 -23 8 0 14 -6 14 -13 0 -8 11 -12 30 -11 20 1 30 -3 30 -12 0 -8 4 -14
9 -14 5 0 8 -14 6 -30 -3 -20 1 -33 9 -36 8 -3 12 -13 9 -23 -3 -10 2 -25 9
-32 8 -7 13 -23 10 -36 -6 -33 6 -75 20 -67 7 5 8 3 4 -5 -5 -7 0 -21 10 -32
13 -15 14 -19 3 -20 -13 -1 47 -32 64 -33 4 -1 11 -5 15 -11 4 -5 14 -11 22
-13 8 -2 16 -7 18 -12 2 -5 9 -7 16 -4 8 3 16 -2 20 -11 3 -9 10 -13 16 -10
13 8 40 -19 40 -39 0 -9 5 -16 10 -16 6 0 9 -13 8 -29 -1 -16 4 -36 11 -45 8
-9 11 -19 7 -23 -3 -3 0 -16 8 -28 8 -12 13 -40 12 -63 -2 -31 1 -42 12 -42 9
0 13 -7 9 -20 -3 -11 0 -26 7 -33 7 -7 12 -20 10 -30 -1 -9 4 -24 13 -32 8 -8
11 -19 8 -25 -4 -6 34 -10 109 -10 86 0 116 3 117 13 0 6 2 20 4 30 2 9 -3 23
-10 31 -8 7 -12 25 -11 39 2 15 -2 31 -9 37 -6 5 -11 22 -10 37 1 16 -3 34 -8
41 -6 7 -11 27 -12 43 -1 17 -6 34 -11 37 -5 4 -9 14 -9 22 1 8 -4 24 -10 35
-6 11 -11 34 -10 50 1 17 -3 38 -10 48 -11 16 -8 23 22 52 19 19 32 39 28 44
-3 6 -1 11 5 11 14 0 33 48 33 80 0 14 4 28 9 31 14 9 13 59 0 68 -6 3 -10 26
-8 51 1 25 -3 50 -10 57 -12 12 -13 98 -1 109 4 4 20 7 37 6 24 0 30 4 30 19
0 11 4 18 8 15 4 -2 9 5 9 16 1 12 8 25 15 29 10 7 11 12 1 29 -7 11 -13 45
-13 75 0 51 -3 59 -37 93 -42 42 -69 56 -78 41 -13 -19 -21 1 -20 48 1 26 -3
51 -9 55 -12 8 -15 68 -3 68 4 0 5 6 0 13 -4 6 -8 21 -8 32 0 11 -6 30 -13 43
-9 15 -9 22 -2 22 6 0 9 4 6 9 -10 15 -14 110 -5 113 5 2 2 16 -7 33 -8 16
-13 37 -11 47 3 9 -3 27 -14 39 -13 15 -16 26 -10 38 6 10 5 23 0 34 -6 9 -6
17 -2 17 18 0 8 55 -12 67 -12 8 -15 12 -6 13 11 0 11 3 1 15 -7 8 -9 15 -4
15 5 0 9 11 9 25 0 14 -3 25 -7 25 -4 0 -3 11 2 24 5 15 5 27 -3 35 -8 8 -8
11 1 11 9 0 8 7 -3 23 -8 13 -12 27 -8 30 3 4 -1 7 -11 7 -13 0 -16 7 -13 28
2 15 0 32 -4 38 -5 6 -10 19 -12 30 -2 10 -8 28 -13 39 -6 11 -10 32 -9 47 1
16 -3 28 -9 28 -7 0 -11 21 -10 56 0 35 -4 58 -11 60 -7 3 -11 19 -8 40 2 22
-1 36 -10 39 -8 4 -12 21 -11 48 1 23 -3 45 -8 48 -5 3 -10 21 -10 40 -1 19
-6 37 -11 41 -6 4 -10 25 -9 47 2 23 -2 41 -8 41 -5 0 -10 20 -10 44 0 25 -4
47 -8 50 -4 2 -9 24 -11 47 -1 23 -7 51 -12 61 -6 11 -10 31 -9 46 3 46 0 63
-9 57 -5 -3 -8 15 -7 41 2 31 -2 48 -11 51 -8 3 -11 15 -8 33 3 17 -1 34 -9
43 -9 9 -13 31 -11 62 1 30 -2 54 -10 62 -7 7 -12 25 -10 40 2 16 -2 37 -8 48
-14 25 -15 46 -4 62 5 8 1 16 -11 24 -12 7 -17 19 -15 30 7 24 -5 71 -16 65
-4 -3 -6 10 -4 29 2 22 -1 35 -8 35 -7 0 -10 13 -7 33 2 20 -2 39 -9 46 -8 7
-11 16 -8 22 4 5 1 9 -6 9 -10 0 -10 3 -1 12 7 7 8 17 1 30 -7 13 -6 18 2 18
7 0 2 11 -10 24 -15 16 -19 26 -11 31 8 5 8 11 -2 23 -8 10 -14 28 -13 42 1
14 -3 34 -9 45 -5 11 -11 54 -12 96 0 42 -5 82 -10 90 -4 7 -8 35 -9 62 -1 27
-6 51 -11 55 -6 4 -10 32 -9 62 1 30 -4 60 -10 66 -6 7 -10 25 -9 42 1 17 -3
33 -10 35 -7 3 -11 23 -9 52 2 27 -3 55 -9 63 -7 8 -11 30 -9 49 1 20 -3 39
-9 43 -7 4 -12 24 -12 44 0 20 -5 36 -10 36 -6 0 -8 19 -6 45 2 29 -1 45 -8
45 -7 0 -14 11 -16 25 -3 14 -1 25 4 25 5 0 2 7 -6 16 -11 10 -16 31 -14 61 1
27 -4 48 -11 52 -8 6 -11 23 -8 54 4 31 1 49 -8 57 -7 6 -12 28 -11 50 0 22
-3 41 -8 43 -5 2 -9 25 -10 52 -1 28 -6 57 -11 65 -5 8 -10 32 -10 53 0 21 -5
41 -11 45 -5 4 -9 23 -9 42 0 19 -3 38 -7 41 -5 3 -10 26 -11 52 -1 26 -8 52
-14 58 -8 8 -9 19 -3 35 6 14 5 26 -1 29 -5 4 -7 11 -4 16 4 5 1 9 -4 9 -6 0
-10 3 -10 8 1 4 0 12 -1 17 -1 6 -2 29 -2 53 0 23 -3 42 -8 42 -4 0 -10 9 -13
20 -3 11 -1 20 5 20 6 0 3 11 -6 25 -9 14 -14 30 -10 36 3 5 -3 18 -15 28 -11
10 -18 21 -15 24 12 11 10 67 -2 67 -8 0 -11 14 -10 40 1 22 -3 41 -9 44 -7 2
-11 17 -10 33 1 15 -3 31 -8 34 -5 4 -10 19 -11 35 -1 16 -5 35 -9 42 -5 7 -9
26 -9 42 -1 17 -7 35 -14 41 -7 5 -10 22 -8 36 3 14 -1 33 -9 42 -20 22 -5 63
19 54 12 -4 15 -3 10 5 -4 7 -1 12 9 12 9 0 13 4 10 10 -3 5 1 10 10 10 12 0
15 6 11 18 -4 14 -3 14 7 -2 7 -11 24 -33 39 -51 15 -18 25 -35 21 -39 -3 -3
-1 -6 5 -6 6 0 14 -9 17 -20 3 -11 13 -20 20 -20 8 0 12 -6 9 -14 -3 -8 5 -21
18 -30 12 -9 18 -16 13 -16 -5 0 0 -7 11 -15 10 -8 16 -15 12 -15 -5 0 8 -17
27 -37 l36 -38 92 -1 c51 0 98 4 105 10 8 5 26 10 40 11 15 1 38 6 52 12 14 6
40 9 58 8 20 -1 32 3 32 11 0 8 8 11 21 9 12 -2 28 2 36 10 8 9 18 13 22 11 4
-3 13 4 21 14 8 10 17 17 22 14 4 -3 8 0 8 6 0 6 3 9 8 7 9 -6 52 39 45 47 -4
3 -1 6 6 6 21 0 77 64 73 84 -2 10 0 16 6 12 13 -8 22 17 17 44 -2 12 1 20 10
20 9 0 11 8 6 33 -4 17 -4 43 0 57 4 14 7 19 8 12 1 -8 6 -10 13 -6 10 6 10 4
0 -8 -8 -10 -9 -19 -3 -22 5 -3 7 -15 4 -26 -3 -11 0 -27 7 -35 7 -8 10 -15 6
-15 -3 0 -1 -11 4 -25 5 -14 5 -27 1 -30 -12 -7 -8 -35 6 -43 6 -4 10 -31 9
-60 -1 -32 2 -52 9 -52 7 0 11 -20 10 -52 -1 -29 4 -58 10 -64 6 -7 11 -38 10
-70 -1 -33 3 -68 8 -79 6 -11 11 -56 12 -100 0 -44 5 -89 11 -100 5 -11 9 -40
8 -65 -1 -25 2 -50 7 -56 5 -6 10 -46 11 -90 1 -43 6 -82 11 -85 5 -3 8 -34 8
-67 0 -34 4 -64 10 -67 5 -4 9 -40 9 -81 0 -41 4 -74 9 -74 9 0 16 -85 24
-294 3 -54 9 -101 14 -105 7 -3 10 -68 9 -164 -1 -97 3 -158 9 -160 6 -2 10
-75 11 -190 0 -178 1 -188 22 -207 12 -11 27 -20 33 -20 7 0 10 -3 6 -6 -13
-13 23 -34 57 -34 25 0 38 6 46 20 6 11 15 18 20 15 4 -3 14 0 22 7 7 7 20 14
28 16 8 2 18 9 22 15 4 7 8 8 8 4 0 -4 9 -3 20 3 11 6 18 15 15 21 -4 5 1 9 9
9 9 0 16 4 16 10 0 5 11 12 25 16 14 3 25 12 25 19 0 8 5 17 12 21 7 5 9 2 3
-7 -4 -8 4 0 18 16 14 17 28 27 32 24 3 -4 18 4 33 17 59 53 68 59 82 59 8 0
21 5 28 12 8 7 18 10 23 7 6 -3 19 4 30 17 15 17 29 22 62 21 23 -1 44 -7 45
-12 2 -6 8 -8 13 -4 5 3 9 -2 9 -10 0 -9 5 -16 11 -16 5 0 7 -5 3 -12 -4 -6
-3 -8 3 -5 14 9 47 -29 38 -42 -3 -6 1 -11 10 -11 9 0 14 -4 11 -9 -3 -5 14
-24 37 -42 27 -22 41 -40 39 -51 -2 -11 3 -18 12 -18 9 0 17 -4 17 -10 1 -5 2
-15 3 -21 0 -6 9 -16 19 -23 9 -7 17 -18 17 -25 0 -6 6 -11 14 -11 8 0 18 -9
21 -20 4 -11 11 -18 16 -15 8 6 14 -16 10 -38 -1 -5 3 -6 9 -2 5 3 10 -1 10
-9 0 -8 9 -18 20 -21 11 -3 20 -13 20 -22 0 -9 14 -29 30 -45 17 -15 30 -33
30 -40 0 -6 3 -9 6 -5 11 10 36 -22 30 -38 -3 -8 0 -15 7 -15 15 0 67 -57 59
-65 -3 -3 -1 -5 5 -5 6 0 25 -13 41 -29 23 -21 28 -31 19 -40 -8 -8 -7 -11 6
-11 9 0 17 -4 17 -10 0 -5 7 -10 16 -10 8 0 13 -4 9 -9 -3 -5 4 -16 16 -25 12
-8 19 -19 15 -24 -3 -5 5 -18 19 -28 13 -10 22 -21 19 -25 -2 -4 11 -23 30
-42 19 -20 32 -38 28 -41 -3 -3 3 -14 14 -24 26 -23 44 -58 44 -82 0 -11 5
-20 12 -20 6 0 9 -3 6 -6 -7 -7 59 -74 72 -74 6 0 10 -6 10 -14 0 -8 9 -17 19
-21 13 -4 18 -13 16 -25 -2 -13 2 -20 11 -20 8 0 14 -4 14 -9 0 -15 94 -9 110
8 18 18 20 59 5 86 -7 11 -11 46 -10 78 1 34 -2 63 -9 70 -13 13 -15 71 -3 83
4 4 -1 16 -10 26 -10 11 -16 32 -15 49 1 16 -2 29 -8 29 -5 0 -9 18 -8 40 1
21 -4 46 -11 54 -8 9 -11 22 -8 31 4 8 -2 20 -13 28 -11 8 -18 16 -15 19 13
13 12 47 -1 52 -7 3 -11 12 -8 21 4 8 1 15 -6 15 -9 0 -10 3 -2 13 9 10 8 19
-3 33 -7 12 -12 29 -11 40 2 10 -3 29 -11 41 -8 12 -13 28 -10 35 2 7 -2 26
-10 41 -8 15 -11 32 -8 36 3 5 0 11 -7 13 -7 3 -12 22 -13 44 0 23 -5 38 -11
37 -7 -1 -10 10 -8 29 2 18 0 35 -6 38 -5 3 -12 20 -13 37 -2 16 -8 36 -13 44
-4 8 -7 24 -5 37 1 12 -2 22 -8 22 -6 0 -11 18 -11 40 0 22 -5 40 -11 40 -6 0
-9 13 -7 29 1 16 -4 36 -11 45 -7 9 -11 27 -9 41 3 14 1 25 -4 25 -5 0 -6 5
-3 10 3 6 1 10 -4 10 -6 0 -11 11 -11 25 0 14 -4 25 -9 25 -4 0 -7 10 -7 23 1
12 -2 31 -7 42 -6 10 -10 32 -9 48 0 15 -5 30 -13 33 -7 3 -12 14 -10 25 2 10
-2 24 -9 31 -6 7 -11 30 -10 51 2 24 -2 37 -10 37 -7 0 -11 12 -10 30 1 17 -4
36 -10 43 -7 7 -11 18 -8 25 2 7 0 18 -6 25 -14 19 -23 49 -12 42 7 -4 7 3 0
19 -6 18 -6 26 1 26 6 0 7 5 4 10 -4 6 -11 8 -16 5 -5 -4 -9 8 -9 24 0 17 -4
31 -9 31 -5 0 -8 11 -6 25 1 14 -1 25 -6 25 -5 0 -6 7 -3 15 4 8 1 15 -6 15
-6 0 -10 8 -9 18 2 9 -3 28 -10 40 -7 13 -10 26 -7 29 3 3 -2 12 -10 20 -8 9
-13 22 -10 30 3 8 0 26 -7 41 -7 15 -13 38 -12 52 0 14 -5 31 -11 37 -7 7 -11
21 -10 30 2 10 -3 23 -10 31 -7 7 -11 19 -8 27 4 8 -1 17 -9 21 -9 3 -13 13
-10 25 4 12 0 19 -9 19 -11 0 -14 7 -10 25 2 15 0 25 -7 25 -6 0 -11 14 -11
30 0 17 -4 30 -10 30 -5 0 -10 9 -10 19 0 11 -4 22 -9 25 -8 5 -25 64 -22 79
0 4 -6 7 -14 7 -10 0 -14 9 -11 30 2 21 -1 30 -11 30 -10 0 -14 7 -10 19 3 12
-1 22 -10 25 -8 4 -13 13 -9 21 3 8 0 20 -7 27 -7 7 -12 20 -12 28 1 8 -3 24
-9 35 -6 11 -10 24 -11 28 0 4 -5 11 -11 15 -6 4 -10 16 -8 26 1 11 -5 25 -14
33 -14 10 -14 12 -2 13 13 0 13 1 0 10 -8 5 -11 10 -6 10 5 0 1 9 -9 20 -13
14 -14 20 -5 20 9 0 7 5 -6 15 -10 8 -16 15 -11 15 4 0 1 13 -8 30 -8 16 -15
38 -15 50 0 11 -5 20 -11 20 -5 0 -7 5 -4 10 3 6 1 10 -6 10 -8 0 -8 4 1 15
10 12 9 16 -3 21 -9 3 -14 15 -12 29 1 13 -4 26 -11 29 -7 3 -11 14 -9 25 2
11 -3 25 -11 31 -7 7 -12 16 -9 20 3 4 -1 13 -9 19 -7 6 -12 24 -10 41 2 17
-1 30 -6 30 -6 0 -10 7 -10 15 0 8 5 15 10 15 6 0 10 6 10 14 0 8 8 22 17 32
10 10 18 20 19 23 3 21 47 101 55 101 6 0 8 8 4 19 -3 10 1 24 10 31 8 7 12
16 9 21 -3 5 4 19 15 31 12 12 21 27 21 33 0 18 70 17 77 -1 4 -11 9 -12 19
-3 9 8 14 8 14 1 0 -6 9 -9 20 -7 11 2 20 -1 20 -6 0 -6 4 -8 9 -4 5 3 12 1
16 -5 4 -7 13 -7 26 0 15 9 21 7 25 -5 4 -9 13 -14 20 -11 8 3 14 1 14 -4 0
-5 7 -7 15 -4 8 4 21 2 28 -4 7 -6 25 -9 40 -8 15 2 27 0 27 -4 0 -14 32 -20
46 -9 8 6 37 12 64 12 28 0 54 5 60 12 6 7 20 10 32 7 16 -4 19 -2 13 8 -6 10
-3 12 13 8 16 -4 22 -2 22 10 0 8 3 12 6 9 9 -9 105 44 99 54 -3 4 4 10 15 14
11 3 20 14 20 22 0 9 3 14 6 11 6 -7 84 72 84 85 0 4 3 6 8 4 12 -6 39 28 36
47 -1 10 0 15 3 12 8 -8 33 20 33 38 0 9 5 16 10 16 6 0 10 7 10 15 0 8 9 23
21 34 12 11 18 24 15 29 -3 6 1 13 10 16 8 3 12 10 9 16 -3 5 1 10 10 10 11 0
15 5 12 14 -3 8 1 17 10 20 9 4 13 14 10 26 -6 23 28 50 35 28 2 -6 26 -12 54
-12 27 -1 55 -5 62 -10 21 -13 82 -14 96 -2 6 6 18 12 26 14 8 2 17 8 18 13 2
5 8 7 13 3 5 -3 19 6 31 19 13 13 29 22 35 20 7 -3 16 3 19 12 5 12 9 13 14 5
5 -9 10 -6 15 9 3 11 12 22 18 23 7 0 19 2 27 2 8 1 14 7 13 14 -2 7 5 12 15
12 10 0 23 5 30 12 7 7 12 8 12 3 0 -4 19 11 41 34 23 23 50 43 60 44 10 1 15
5 13 9 -3 4 2 8 10 8 9 0 13 6 10 14 -3 9 10 29 34 51 22 19 43 47 46 61 4 13
11 22 16 19 9 -5 12 2 9 21 -1 3 11 19 26 34 16 17 25 35 22 44 -4 9 3 23 17
33 16 13 22 27 21 52 -1 18 4 35 10 37 14 6 14 56 -1 75 -7 8 -10 26 -8 42 1
15 -2 27 -7 27 -5 0 -9 8 -9 19 0 10 -7 24 -15 31 -8 7 -12 16 -9 21 3 5 0 9
-5 9 -6 0 -11 10 -11 23 0 13 -9 33 -20 45 -11 12 -20 28 -20 37 0 8 -4 15
-10 15 -5 0 -10 18 -10 40 0 22 -3 40 -7 40 -5 0 -13 12 -20 26 -10 22 -10 30
5 48 14 18 23 21 49 15 17 -3 37 -3 44 2 7 4 17 5 21 3 4 -3 8 -1 8 5 0 5 20
9 45 9 24 0 50 4 56 8 8 4 9 3 5 -4 -4 -7 -2 -12 3 -12 6 0 11 5 11 11 0 6 5
7 13 2 18 -11 39 -10 62 3 11 6 33 10 49 10 15 -1 30 4 33 10 2 7 15 11 29 9
13 -1 29 4 35 11 6 8 15 11 20 8 5 -3 12 2 15 10 3 9 15 14 27 12 12 -1 28 3
35 11 8 7 18 11 23 7 5 -3 12 1 15 9 3 8 16 13 30 11 14 -1 28 5 34 14 8 15
11 15 20 2 6 -10 10 -11 10 -2 0 6 7 12 15 12 8 0 15 4 15 10 0 5 3 9 8 8 12
-4 86 35 95 49 4 7 15 13 22 13 8 0 15 7 15 16 0 9 9 18 20 21 11 3 20 8 20
12 0 10 84 96 91 94 4 -1 6 6 5 15 0 9 3 18 8 19 10 1 29 30 24 36 -2 2 3 11
10 20 8 9 10 22 6 28 -4 8 -3 9 5 5 7 -5 14 4 18 26 4 18 6 36 5 41 -1 4 6 7
16 8 9 0 12 3 7 5 -6 2 -9 22 -7 44 3 32 1 40 -13 40 -9 0 -14 4 -11 9 7 11
-18 61 -36 72 -9 6 -9 9 -1 9 14 0 -16 60 -30 60 -5 0 -5 5 -1 11 3 6 2 14 -4
18 -6 3 -12 13 -14 21 -2 8 -8 20 -14 27 -7 7 -10 26 -9 42 1 16 -3 32 -9 34
-7 3 -11 33 -10 80 0 44 -4 75 -10 74 -12 -3 -14 136 -2 145 5 3 10 23 12 43
1 21 8 41 16 46 7 5 9 9 4 9 -5 0 -2 7 5 16 7 9 14 23 15 31 1 8 11 21 21 28
10 7 18 18 18 23 0 21 74 109 96 114 7 2 17 8 22 13 4 7 10 7 15 0 4 -6 14
-10 22 -10 8 1 23 -5 32 -13 10 -8 25 -12 34 -8 9 4 26 1 38 -7 12 -7 31 -12
43 -11 12 1 21 -4 20 -9 -1 -6 7 -11 18 -12 11 0 29 -6 40 -12 11 -6 30 -9 43
-7 12 2 25 -2 27 -9 3 -6 20 -12 38 -11 17 1 41 -4 52 -11 11 -6 46 -10 78
-10 47 1 60 6 73 23 8 12 19 20 24 17 4 -3 13 2 20 10 7 8 17 12 24 8 6 -3 8
-3 4 2 -7 8 17 31 35 34 4 0 24 18 44 38 20 21 39 37 43 36 3 -1 7 8 7 20 1
12 10 28 20 35 10 7 17 18 16 23 -2 5 1 8 6 6 12 -3 62 53 56 63 -3 4 0 10 5
12 6 2 13 12 14 23 2 11 9 19 15 17 7 -1 11 3 9 10 -3 16 32 90 46 100 6 4 7
8 3 8 -4 0 -2 10 5 23 16 28 20 67 7 67 -5 0 -9 9 -9 21 0 11 -4 17 -10 14 -5
-3 -10 1 -10 10 0 9 -5 15 -12 13 -6 -2 -22 6 -36 19 -13 12 -28 20 -33 18 -4
-3 -12 3 -18 12 -6 10 -11 14 -11 10 0 -4 -10 -2 -22 5 -13 7 -27 11 -32 10
-5 -2 -17 5 -27 14 -11 9 -19 14 -19 10 0 -5 -16 1 -36 13 -19 12 -42 21 -50
21 -8 0 -12 5 -9 10 3 6 -1 10 -10 10 -9 0 -25 9 -37 20 -12 11 -29 20 -37 20
-13 0 -15 11 -13 65 2 36 8 65 14 65 6 0 8 9 5 19 -3 12 1 22 9 25 8 3 14 13
14 21 0 9 4 14 8 11 4 -2 9 5 9 16 1 12 7 24 14 28 6 4 8 13 5 19 -4 6 0 11 9
11 11 0 15 5 11 15 -3 9 4 25 16 37 13 13 23 29 25 37 1 8 7 17 13 21 7 4 11
10 11 14 -1 3 1 5 2 4 2 -2 12 4 22 12 15 12 59 15 246 16 171 0 231 4 243 13
9 8 16 11 16 8 0 -13 68 60 74 80 4 11 13 24 21 27 8 3 15 15 15 26 0 11 7 20
16 20 8 0 12 5 9 10 -3 6 -1 10 4 10 6 0 11 9 11 19 0 11 9 23 20 26 11 4 18
10 15 15 -3 5 5 21 18 37 13 15 22 34 20 41 -3 6 2 12 10 12 9 0 19 9 22 20 4
11 11 18 16 15 5 -4 9 0 9 8 0 7 11 20 25 27 13 7 22 17 19 22 -6 9 30 59 43
60 4 0 7 4 6 9 -2 5 3 9 11 9 9 0 13 7 11 20 -3 13 2 20 12 20 9 0 13 6 10 14
-3 8 0 19 7 25 7 6 12 23 11 38 0 16 4 33 10 39 7 7 10 36 9 68 -1 31 2 56 7
56 5 0 9 11 9 25 0 14 -4 25 -10 25 -17 0 -11 15 18 46 28 30 52 41 52 24 0
-6 9 -6 25 0 14 5 25 7 25 4 0 -3 14 10 30 28 27 30 32 37 29 54 0 3 6 15 14
27 8 12 13 30 11 40 -1 10 3 20 11 23 7 3 11 14 7 26 -2 11 1 24 8 28 15 9 21
118 7 137 -4 6 -4 14 2 17 5 3 7 16 4 27 -4 14 0 25 10 31 9 5 14 15 10 24 -3
8 2 23 11 33 12 13 14 21 6 26 -8 5 -8 11 1 21 6 8 8 14 3 14 -5 0 -9 11 -9
25 0 14 4 25 8 25 4 0 3 9 -3 20 -8 16 -8 20 4 20 12 0 14 18 14 95 -1 52 2
98 5 101 3 3 3 12 0 20 -3 8 0 14 6 14 6 0 8 7 5 15 -4 8 -2 15 2 16 5 0 17 2
27 4 9 2 24 -3 32 -12 12 -11 15 -11 15 -1 0 8 3 9 8 3 11 -16 57 -12 75 7 9
9 17 28 17 42 0 25 17 65 32 76 4 3 6 14 4 25 -2 11 2 23 8 27 17 11 17 447 0
472 -7 10 -10 25 -7 32 3 8 0 14 -6 14 -6 0 -11 6 -11 14 0 21 -56 79 -77 81
-10 0 -25 5 -32 9 -24 15 -74 17 -83 4 -4 -7 -11 -13 -15 -13 -18 0 -73 -28
-73 -37 0 -5 -4 -7 -9 -3 -5 3 -12 1 -16 -5 -4 -6 -10 -8 -15 -5 -5 3 -13 -3
-19 -12 -5 -10 -12 -17 -15 -15 -15 6 -36 1 -31 -8 4 -6 -5 -10 -20 -10 -14 0
-24 -4 -21 -9 5 -8 -11 -19 -32 -21 -4 -1 -15 -9 -25 -17 -9 -9 -17 -12 -17
-8 0 4 -8 0 -19 -9 -17 -16 -20 -16 -35 0 -9 9 -20 14 -23 11 -7 -8 -33 18
-33 32 0 6 -4 11 -8 11 -5 0 -28 18 -50 41 -23 22 -42 37 -42 33 0 -4 -12 3
-26 17 -14 13 -29 23 -32 23 -12 -2 -52 19 -52 27 0 4 -9 6 -20 4 -13 -3 -20
2 -20 12 0 9 -3 13 -7 10 -3 -4 -16 -1 -27 6 -12 7 -37 13 -56 12 -19 0 -41 5
-49 13 -11 11 -16 11 -30 -1 -9 -8 -26 -13 -38 -12 -13 1 -23 -3 -23 -9 0 -6
-14 -22 -30 -35 -17 -13 -30 -31 -30 -41 0 -10 -9 -21 -19 -25 -11 -3 -18 -12
-15 -19 3 -8 -6 -23 -20 -33 -14 -11 -23 -23 -20 -26 3 -2 -9 -4 -25 -3 -18 0
-31 6 -31 14 0 7 -4 10 -10 7 -5 -3 -10 1 -10 10 0 11 -5 15 -14 12 -8 -3 -20
0 -26 8 -6 8 -18 11 -26 8 -8 -3 -14 0 -14 7 0 7 -7 10 -16 6 -9 -3 -12 -2 -9
5 4 6 -2 13 -14 16 -12 3 -21 9 -21 13 0 8 -41 26 -48 21 -1 -1 -10 5 -18 14
-9 8 -19 13 -24 10 -4 -3 -11 2 -14 10 -3 8 -9 14 -13 13 -4 -1 -18 3 -30 10
-13 7 -23 9 -23 5 0 -4 -4 -3 -8 4 -4 6 -14 13 -22 15 -20 4 -39 22 -33 31 2
4 -7 7 -21 7 -13 0 -26 4 -28 9 -3 9 -193 103 -204 101 -4 -1 -10 3 -13 8 -3
6 -13 12 -21 14 -8 2 -21 9 -28 16 -8 7 -18 10 -23 7 -5 -4 -9 -2 -9 3 0 10
-58 36 -72 33 -5 0 -8 6 -8 15 0 8 -5 12 -10 9 -6 -4 -18 -1 -26 6 -8 6 -17 9
-21 6 -3 -4 -15 5 -26 19 -10 14 -26 23 -33 20 -8 -3 -14 -1 -14 5 0 6 -4 8
-9 4 -5 -3 -16 3 -23 13 -13 19 -18 22 -39 22 -5 0 -8 4 -5 8 3 5 -9 8 -25 7
-17 -1 -33 4 -36 11 -2 7 -13 11 -24 9 -10 -2 -18 1 -16 8 1 6 -7 12 -18 12
-26 2 -71 21 -79 34 -4 6 -12 8 -19 5 -7 -2 -18 5 -25 16 -10 17 -10 20 5 20
9 0 14 3 10 6 -8 8 16 33 26 27 4 -2 7 -1 6 4 -3 19 14 52 24 46 6 -3 7 -1 3
6 -4 6 -3 18 3 25 7 8 10 20 9 27 -2 8 3 13 10 12 6 -2 12 6 12 16 0 11 5 23
11 26 6 4 8 13 5 20 -2 7 2 22 10 33 8 11 11 27 8 35 -3 8 1 17 9 20 9 3 14
18 12 41 -1 19 4 37 10 40 6 2 11 21 10 43 -1 21 3 44 9 52 12 16 15 300 3
308 -4 3 -4 10 0 16 11 15 10 38 -2 57 -5 8 -9 32 -10 53 -1 21 -6 42 -11 45
-6 4 -10 19 -9 35 1 15 -4 32 -10 37 -7 6 -11 24 -9 40 2 17 -1 30 -6 30 -6 0
-10 9 -10 19 0 11 -4 21 -10 23 -5 2 -11 15 -12 31 -1 15 -6 27 -10 27 -4 0
-8 9 -8 20 0 11 -5 20 -11 20 -5 0 -7 5 -4 10 3 6 2 10 -3 10 -6 0 -8 9 -5 20
3 11 0 20 -6 20 -6 0 -11 10 -11 22 0 12 -3 18 -7 15 -8 -9 -36 31 -29 42 3 5
-1 12 -10 15 -9 3 -14 13 -11 20 3 8 -1 17 -9 20 -8 3 -14 12 -14 21 0 8 -5
15 -11 15 -5 0 -7 5 -4 10 3 6 -1 17 -9 26 -9 9 -14 20 -10 25 3 5 -1 12 -9
15 -9 3 -21 19 -27 35 -7 16 -16 29 -20 29 -4 0 -13 14 -20 30 -7 17 -21 36
-31 43 -10 7 -19 19 -21 27 -2 8 -14 24 -27 37 -13 13 -22 26 -19 29 3 2 -12
22 -33 43 -22 21 -39 44 -39 52 0 8 -14 23 -30 34 -16 11 -30 24 -30 28 0 11
-140 147 -152 147 -5 0 -8 3 -6 8 5 9 -185 196 -204 200 -7 2 -39 30 -71 63
-32 33 -62 57 -66 55 -4 -3 -14 4 -21 15 -8 10 -20 19 -28 19 -7 0 -10 5 -7
10 3 6 -1 10 -10 10 -9 0 -31 16 -51 35 -19 20 -40 36 -47 38 -6 1 -25 15 -40
32 -16 16 -36 30 -45 31 -9 2 -22 11 -29 20 -7 10 -13 14 -13 10 0 -4 -7 -1
-15 6 -37 33 -46 39 -57 32 -6 -4 -8 -3 -4 4 3 6 -3 13 -14 17 -11 4 -17 11
-14 17 5 8 1 9 -10 5 -10 -4 -19 -1 -22 8 -6 13 -41 31 -56 27 -4 -1 -10 7
-13 18 -4 11 -14 20 -24 20 -10 0 -24 7 -31 15 -7 8 -16 12 -21 10 -5 -3 -14
3 -21 15 -7 11 -21 20 -30 20 -10 0 -18 5 -18 10 0 6 -7 10 -15 10 -9 0 -26 9
-38 20 -12 11 -27 18 -34 16 -12 -5 -18 6 -14 27 1 5 -3 6 -9 2 -5 -3 -16 -3
-22 2 -7 4 -20 8 -28 10 -8 1 -16 7 -18 12 -2 6 -12 11 -22 11 -10 0 -21 9
-25 19 -3 11 -12 18 -19 15 -7 -3 -21 2 -30 11 -9 9 -20 13 -26 10 -5 -3 -10
-2 -10 3 0 5 -15 15 -32 22 -18 8 -41 20 -52 29 -10 9 -20 15 -22 14 -11 -7
-24 -2 -19 7 3 6 2 10 -4 10 -6 0 -8 7 -5 15 4 8 10 12 15 9 5 -3 9 -2 8 3 -4
21 2 44 10 39 5 -3 8 7 7 24 -1 16 3 31 10 34 7 3 11 19 10 36 -1 17 3 35 10
41 7 5 11 18 9 27 -1 9 1 19 6 22 4 3 10 23 12 44 3 21 9 41 14 45 5 3 8 17 8
31 0 14 5 35 11 47 6 13 10 39 8 59 -2 34 4 43 66 106 38 38 72 78 75 88 4 11
11 20 16 20 5 0 9 7 9 15 0 8 9 23 20 32 11 10 20 25 20 35 0 10 5 18 10 18 6
0 10 6 10 13 0 7 9 23 20 35 12 12 18 22 14 22 -3 0 -1 7 6 15 7 8 9 15 5 15
-4 0 -2 7 5 15 6 8 9 19 5 25 -3 5 1 10 10 10 11 0 15 5 11 15 -3 8 2 19 12
24 9 6 13 11 9 11 -4 0 -2 10 5 23 7 12 13 27 13 32 1 6 6 9 11 8 6 -1 10 8 9
20 -1 12 4 31 11 41 9 14 10 23 3 32 -7 9 -5 16 10 23 25 14 17 41 -12 41 -11
0 -17 -3 -14 -7 4 -3 1 -16 -6 -27 -8 -12 -13 -31 -12 -43 1 -12 -2 -20 -7
-17 -7 4 -10 -18 -7 -43 0 -3 -6 -10 -15 -15 -8 -5 -13 -15 -10 -23 4 -8 1
-15 -5 -15 -6 0 -11 -9 -11 -19 0 -11 -4 -21 -8 -23 -10 -4 -67 -120 -64 -130
1 -5 -3 -8 -9 -8 -5 0 -7 -4 -4 -10 3 -5 1 -10 -4 -10 -6 0 -11 -6 -11 -13 0
-7 -9 -19 -19 -26 -11 -8 -17 -19 -15 -26 3 -6 -2 -18 -10 -25 -9 -7 -13 -16
-10 -21 3 -5 -2 -12 -10 -15 -9 -3 -13 -10 -10 -15 3 -5 0 -9 -6 -9 -15 0 -41
-26 -33 -34 4 -3 0 -6 -7 -6 -7 0 -18 -7 -25 -17 -18 -24 -35 -8 -26 25 8 30
7 57 -4 87 -4 12 -4 15 2 8 5 -7 7 10 6 45 -2 31 -3 68 -2 82 0 14 0 30 0 35
-4 65 -4 82 2 92 4 6 0 18 -8 27 -16 15 -16 36 -2 47 4 3 9 16 10 27 1 12 5
22 9 22 4 0 8 9 8 20 0 11 5 20 11 20 5 0 8 4 5 9 -3 5 1 14 9 21 8 7 12 16 9
21 -3 5 -140 9 -305 9 l-299 0 -1 -37 c-2 -59 2 -98 11 -103 10 -7 10 -214 -1
-221 -5 -3 -10 -58 -11 -122 -1 -64 -5 -114 -10 -111 -4 3 -8 -10 -8 -29 0
-35 -27 -77 -50 -77 -7 0 -10 -7 -6 -16 3 -8 2 -12 -3 -9 -5 3 -12 1 -16 -5
-3 -5 1 -10 9 -10 8 0 18 5 21 10 10 17 25 11 25 -10 0 -11 -4 -20 -8 -20 -4
0 -9 -12 -10 -26 -1 -15 -7 -33 -13 -40 -6 -7 -10 -21 -9 -31 4 -31 0 -41 -12
-39 -32 7 -56 22 -92 58 -21 22 -45 37 -52 34 -8 -3 -13 -2 -12 2 3 9 -288
302 -300 302 -4 0 -8 9 -9 20 -1 11 -31 49 -67 83 -36 35 -66 71 -66 81 0 9
-5 14 -10 11 -6 -3 -10 -1 -10 4 0 6 -11 21 -25 33 -14 12 -25 27 -25 33 0 7
-9 20 -20 30 -11 10 -20 26 -20 37 0 10 -7 18 -15 18 -8 0 -15 4 -15 9 0 5 -7
17 -16 26 -9 9 -23 33 -30 53 -7 20 -13 33 -14 27 0 -5 -7 1 -16 13 l-15 22
-5308 0 c-4711 0 -5308 -2 -5308 -15z m2344 -102 c-2 -44 1 -67 10 -74 7 -6
10 -15 7 -20 -3 -5 0 -9 7 -9 7 0 8 -4 2 -12 -10 -14 -10 -55 0 -64 3 -3 2
-16 -3 -29 -6 -16 -5 -27 4 -34 9 -7 12 -58 12 -191 -1 -134 2 -184 11 -192
17 -13 17 -34 1 -41 -10 -3 -13 -70 -12 -286 0 -245 -2 -283 -15 -291 -12 -7
-13 -9 -2 -10 9 0 10 -4 4 -12 -5 -7 -8 -35 -6 -63 1 -27 3 -54 4 -60 0 -5 -2
-22 -4 -38 -2 -15 0 -30 6 -34 6 -4 3 -11 -7 -18 -18 -13 -28 -102 -13 -112 5
-3 4 -9 -3 -13 -11 -7 -17 -31 -24 -100 -4 -40 -5 -42 -17 -34 -8 4 -8 1 -1
-13 7 -12 7 -25 2 -34 -5 -7 -7 -22 -4 -31 3 -10 0 -18 -6 -18 -7 0 -10 -7 -6
-15 3 -8 0 -15 -6 -15 -7 0 -6 -5 2 -15 10 -12 9 -16 -3 -21 -9 -3 -14 -15
-12 -30 1 -14 -4 -28 -14 -34 -9 -4 -13 -12 -9 -15 4 -4 0 -14 -8 -22 -8 -8
-12 -23 -9 -33 3 -11 0 -20 -10 -23 -20 -8 -73 43 -69 67 1 10 0 15 -3 12 -6
-6 -29 15 -30 29 -1 5 -11 13 -23 17 -13 5 -20 14 -17 21 3 8 -6 22 -19 32
-14 10 -23 24 -20 31 3 7 -6 20 -20 29 -14 9 -22 20 -19 25 3 4 -8 21 -24 36
-17 15 -32 38 -36 51 -3 13 -10 23 -16 23 -6 0 -8 4 -4 9 3 5 1 12 -5 16 -5 3
-10 15 -10 26 0 11 -7 19 -16 19 -13 0 -14 3 -5 14 9 11 8 15 -5 20 -9 4 -14
9 -11 12 3 4 -1 13 -9 21 -8 9 -13 21 -10 29 3 7 -2 18 -9 24 -8 7 -12 17 -9
22 4 6 0 14 -7 19 -8 4 -14 21 -14 36 -1 15 -6 37 -12 48 -6 11 -9 32 -7 47 1
16 -3 34 -9 40 -14 15 -16 50 -3 60 5 3 10 29 10 56 1 27 6 55 12 63 6 8 10
27 9 42 -1 16 4 31 11 34 7 3 11 15 8 30 -3 14 0 31 6 38 6 7 12 29 13 49 1
20 8 38 14 41 7 2 10 12 6 21 -4 12 -3 15 5 10 7 -4 13 -2 13 3 1 6 2 17 3 24
1 6 -3 15 -9 19 -6 5 -6 8 2 8 6 0 17 16 23 35 6 19 17 35 23 35 7 0 6 4 -3
10 -12 8 -12 10 3 16 11 4 17 17 17 35 0 16 5 29 11 29 5 0 8 4 5 9 -3 5 1 14
8 20 8 7 13 23 12 36 -2 13 3 26 11 29 7 3 12 9 11 13 -1 4 3 18 10 29 6 12 8
25 4 29 -4 5 -2 5 4 2 7 -4 14 3 18 18 4 14 11 25 16 25 5 0 7 7 4 15 -4 8 -1
15 5 15 6 0 11 9 11 20 0 11 5 20 10 20 6 0 10 8 10 19 0 10 7 24 15 31 8 7
12 16 9 21 -3 5 -1 9 4 9 9 0 18 20 27 59 2 7 13 20 24 28 12 8 19 19 16 24
-4 5 0 12 9 15 8 3 13 14 11 25 -2 11 2 19 10 19 7 0 18 14 24 30 5 17 15 30
20 30 6 0 8 6 5 14 -3 8 3 20 14 27 10 8 22 23 26 35 3 11 13 21 22 21 12 0
14 -12 11 -64z m857 -231 c-1 -12 4 -20 10 -19 6 1 11 -9 12 -23 0 -14 4 -32
8 -42 4 -9 8 -30 10 -46 1 -17 7 -36 13 -44 5 -7 9 -24 8 -38 -1 -13 4 -30 11
-37 7 -7 10 -21 7 -32 -3 -10 0 -22 6 -25 6 -4 11 -25 11 -47 0 -21 5 -39 10
-39 6 0 10 -11 10 -24 0 -13 7 -37 15 -52 8 -16 11 -30 6 -32 -10 -3 -2 -42 8
-42 4 0 8 -11 9 -26 1 -14 6 -34 12 -44 5 -10 10 -33 10 -50 0 -17 4 -29 10
-25 5 3 8 -9 6 -31 -1 -21 2 -38 9 -41 7 -2 13 -16 13 -30 0 -14 4 -28 9 -32
6 -3 9 -16 8 -28 -1 -12 4 -24 11 -27 6 -2 11 -18 9 -36 -2 -18 3 -34 10 -36
7 -3 11 -16 9 -30 -1 -13 3 -27 9 -31 14 -9 18 -53 6 -53 -5 0 0 -9 11 -20 12
-12 18 -25 15 -29 -2 -5 2 -14 10 -21 11 -9 12 -17 5 -30 -8 -15 -5 -22 12
-34 12 -9 17 -16 10 -16 -9 0 -8 -8 3 -30 9 -17 13 -36 9 -42 -5 -7 -2 -9 8
-6 11 5 14 -2 13 -33 -1 -24 4 -40 12 -44 8 -2 12 -9 9 -13 -3 -5 1 -20 9 -35
7 -14 10 -28 7 -32 -4 -4 1 -11 10 -16 10 -5 15 -18 13 -30 -2 -11 2 -22 10
-26 8 -3 12 -9 9 -15 -7 -11 15 -70 30 -80 6 -4 11 -13 12 -20 2 -26 17 -58
26 -58 5 0 8 -12 6 -27 -2 -21 -9 -28 -27 -29 -13 -1 -26 -6 -30 -11 -3 -6
-59 -9 -131 -9 -69 1 -134 -3 -145 -8 -11 -6 -37 -10 -58 -11 -21 0 -41 -5
-45 -11 -4 -5 -29 -10 -57 -9 -27 0 -56 -5 -63 -12 -7 -7 -18 -10 -26 -7 -7 3
-19 -2 -26 -10 -7 -9 -16 -13 -21 -10 -5 3 -12 -2 -15 -10 -3 -9 -10 -13 -15
-10 -5 3 -9 0 -9 -5 0 -6 -4 -11 -9 -11 -13 0 -8 25 8 44 7 9 10 16 5 16 -5 0
-2 6 6 13 9 7 15 19 15 27 -1 8 4 27 11 41 7 15 10 29 7 33 -4 3 2 13 13 21
11 8 14 14 6 15 -9 0 -7 11 8 39 12 25 16 42 10 46 -6 3 -10 11 -10 16 0 6 4
7 10 4 11 -7 25 39 16 54 -3 5 0 16 8 24 8 8 13 26 12 40 -2 15 2 31 9 37 6 5
11 28 10 51 -1 24 3 43 10 45 7 3 11 22 10 50 -2 29 2 47 10 50 8 3 11 28 10
79 -1 45 3 76 9 78 14 6 14 486 0 495 -6 4 -10 45 -9 92 0 47 -4 88 -8 91 -5
4 -11 38 -12 75 -2 38 -7 80 -12 94 -5 14 -9 41 -8 60 1 19 -2 40 -7 46 -4 6
-9 31 -11 57 -1 25 -6 49 -10 53 -13 13 -8 22 11 20 10 -2 17 -11 16 -24z
m-3067 -692 c-2 -10 -8 -24 -13 -32 -6 -7 -10 -29 -9 -48 2 -19 -2 -38 -7 -41
-5 -3 -10 -21 -10 -40 -1 -19 -5 -36 -9 -39 -4 -3 -9 -22 -11 -43 -1 -20 -6
-37 -11 -37 -5 0 -7 -15 -6 -34 2 -19 -1 -40 -7 -47 -6 -8 -12 -34 -13 -59 -2
-25 -7 -47 -11 -50 -5 -3 -7 -26 -6 -52 1 -26 -2 -49 -8 -51 -5 -2 -10 -32
-10 -68 -1 -36 -6 -67 -12 -71 -7 -5 -11 -31 -9 -65 1 -32 -3 -64 -9 -72 -6
-8 -11 -63 -11 -128 0 -64 -5 -117 -11 -121 -12 -9 -12 -182 0 -202 6 -8 10
-49 11 -91 0 -42 5 -83 11 -90 6 -8 10 -40 9 -71 -1 -37 3 -59 10 -62 8 -3 11
-19 8 -45 -3 -30 0 -43 11 -47 11 -4 14 -16 10 -44 -4 -26 -1 -42 9 -51 8 -7
12 -22 9 -32 -3 -11 1 -23 9 -28 8 -5 13 -20 11 -37 -2 -17 3 -34 12 -41 9 -7
13 -18 10 -23 -8 -12 16 -68 28 -68 6 0 8 -9 5 -20 -3 -11 1 -27 10 -35 8 -8
11 -19 8 -25 -3 -6 1 -13 9 -16 10 -4 14 -15 12 -30 -3 -16 0 -24 9 -24 8 0
12 -6 9 -14 -3 -7 2 -20 10 -29 9 -9 16 -23 16 -31 0 -9 5 -16 11 -16 5 0 7
-4 4 -10 -3 -5 -2 -10 3 -10 5 0 21 -24 36 -54 15 -30 38 -62 51 -72 13 -10
22 -21 19 -25 -2 -4 7 -19 20 -32 14 -14 22 -28 19 -31 -4 -3 0 -6 8 -6 16 0
42 -26 50 -50 6 -15 -25 -53 -34 -43 -3 3 -22 -8 -41 -24 -20 -15 -40 -29 -46
-29 -5 -1 -15 -2 -21 -3 -5 0 -8 -5 -5 -9 2 -4 -5 -9 -16 -9 -12 -1 -25 -8
-29 -15 -5 -7 -9 -10 -9 -5 0 4 -10 1 -23 -8 -13 -8 -27 -12 -30 -8 -4 3 -7 1
-7 -5 0 -13 -70 -46 -78 -37 -3 3 -10 0 -17 -5 -6 -5 -22 -11 -34 -13 -13 -2
-26 -8 -29 -13 -4 -5 -14 -8 -22 -8 -8 1 -20 2 -27 3 -6 0 -10 10 -8 21 2 11
0 18 -6 15 -5 -4 -10 -1 -10 4 -1 6 -2 16 -3 21 0 6 -6 14 -12 18 -9 6 -24 33
-29 52 0 3 -11 28 -24 55 -13 28 -25 56 -27 63 -1 8 -6 21 -10 30 -4 9 -8 19
-8 22 -1 3 -7 15 -14 28 -7 12 -10 27 -7 33 4 5 0 21 -9 33 -8 13 -13 33 -11
45 2 11 -2 27 -9 34 -8 7 -13 24 -12 38 1 13 -3 33 -9 45 -6 12 -10 43 -10 70
1 27 -3 52 -9 56 -14 9 -15 558 0 572 5 6 10 45 10 86 -1 42 4 80 10 87 6 6
10 33 9 60 -1 27 4 53 11 60 6 7 10 28 8 48 -2 23 2 38 10 41 8 3 12 23 11 59
-1 34 2 56 10 59 6 2 11 19 10 38 -1 18 2 36 8 39 5 4 10 19 10 35 0 15 5 33
11 40 7 6 11 28 11 48 -1 25 3 36 13 36 11 0 12 3 3 14 -8 10 -9 16 -1 21 6 3
8 11 5 16 -4 5 1 17 10 26 12 11 13 18 5 23 -15 9 -13 20 7 42 8 10 13 24 9
33 -3 9 0 18 8 21 8 3 13 13 11 22 -1 9 2 22 7 29 5 6 11 24 12 40 2 15 6 36
10 45 4 9 9 22 10 30 1 7 7 22 13 33 6 11 9 28 8 38 -2 9 1 15 6 11 8 -5 14
18 10 40 -1 5 3 12 8 16 6 3 12 18 13 33 1 15 6 27 11 27 5 0 7 7 3 15 -3 8
-1 15 4 15 5 0 7 6 4 14 -3 7 4 30 15 50 12 20 21 45 21 55 0 10 3 21 7 25 4
3 8 13 9 21 1 8 8 28 15 44 14 31 31 32 26 1z m12216 -851 c7 -11 20 -19 29
-19 10 0 18 -4 18 -10 0 -5 9 -10 20 -10 11 0 20 -5 20 -12 0 -6 3 -8 7 -5 3
4 16 -2 27 -12 12 -11 28 -21 36 -23 8 -2 27 -16 42 -33 16 -16 33 -31 38 -31
6 -1 13 -3 18 -4 4 -1 11 -2 15 -1 5 1 6 -3 3 -8 -3 -5 1 -14 9 -21 12 -10 15
-10 15 0 0 10 3 10 15 0 8 -7 15 -18 15 -25 0 -7 13 -18 29 -25 16 -6 37 -20
47 -31 9 -10 21 -16 25 -13 5 3 12 -2 15 -10 3 -9 10 -13 15 -10 5 3 9 -2 9
-10 0 -8 10 -18 23 -22 12 -4 29 -15 38 -25 9 -11 22 -19 28 -19 7 0 9 -4 6
-10 -3 -5 2 -10 12 -10 10 0 31 -13 46 -30 16 -16 34 -30 39 -30 6 0 43 -33
81 -72 39 -40 74 -72 79 -71 4 2 8 -2 8 -8 0 -15 103 -115 115 -111 5 2 7 1 3
-3 -3 -4 2 -16 12 -28 11 -12 21 -26 22 -31 2 -5 20 -27 41 -48 21 -21 35 -38
31 -38 -4 0 2 -10 14 -22 11 -13 22 -30 24 -38 2 -8 13 -23 26 -33 12 -10 20
-22 17 -27 -3 -4 2 -13 10 -20 8 -7 12 -16 9 -21 -3 -5 0 -9 5 -9 6 0 10 -3
10 -7 -3 -20 2 -46 8 -40 9 10 32 -25 33 -50 0 -13 5 -23 11 -23 6 0 9 -9 6
-20 -3 -13 0 -20 9 -20 8 0 14 -9 14 -20 0 -11 5 -20 11 -20 5 0 8 -4 4 -9 -3
-5 1 -16 10 -24 8 -8 13 -24 10 -35 -2 -12 3 -23 11 -26 9 -3 13 -10 10 -15
-3 -5 0 -14 8 -20 7 -6 12 -26 11 -46 -2 -24 2 -35 11 -35 8 0 11 -6 8 -15 -4
-8 1 -26 9 -39 9 -14 14 -36 11 -54 -3 -17 1 -35 8 -43 7 -8 12 -25 10 -39 -1
-14 -2 -32 -2 -40 1 -48 -1 -64 -9 -74 -6 -6 -9 -39 -7 -73 1 -45 -1 -60 -11
-56 -9 3 -11 -7 -9 -36 2 -26 -1 -42 -10 -45 -7 -3 -11 -14 -9 -24 2 -11 -2
-30 -9 -44 -7 -13 -12 -32 -10 -42 1 -9 -4 -20 -12 -23 -8 -3 -12 -9 -9 -13 3
-5 1 -11 -5 -15 -5 -3 -10 -15 -10 -26 0 -10 -3 -19 -7 -19 -9 0 -33 -49 -33
-67 0 -7 -4 -13 -9 -13 -5 0 -11 -8 -13 -18 -6 -21 -38 -26 -38 -6 0 7 -8 11
-20 9 -12 -2 -20 2 -20 10 0 8 -8 12 -20 10 -12 -2 -20 2 -20 10 0 9 -8 12
-22 10 -12 -3 -30 3 -40 12 -10 9 -18 13 -18 8 0 -4 -7 -2 -15 5 -8 7 -15 9
-15 4 0 -4 -6 0 -13 11 -8 10 -19 15 -25 11 -7 -4 -12 -3 -12 2 0 10 -47 35
-70 37 -8 0 -34 11 -56 23 -23 11 -45 18 -49 14 -5 -4 -5 -1 -1 6 7 12 -5 16
-33 12 -8 -1 -21 6 -28 16 -7 10 -13 15 -13 11 0 -4 -21 3 -47 16 -27 14 -53
23 -58 21 -6 -2 -16 5 -23 16 -7 12 -8 20 -2 20 5 0 10 5 10 12 0 6 7 20 17
30 12 14 13 18 3 18 -9 0 -7 5 5 13 10 8 15 19 11 25 -4 7 -2 12 4 12 6 0 8 5
5 10 -3 6 -2 10 3 10 5 0 8 22 8 49 -1 27 2 47 7 44 7 -4 9 1 12 57 2 19 3 43
4 53 0 10 5 16 10 13 5 -3 11 1 15 9 3 8 2 16 -2 19 -4 2 -7 55 -7 117 0 64
-4 117 -10 123 -5 6 -10 36 -9 66 0 31 -6 65 -14 77 -17 27 -17 34 0 44 10 7
8 10 -8 15 -18 5 -20 12 -17 45 3 25 0 39 -8 39 -6 0 -9 7 -5 15 3 8 1 15 -5
15 -6 0 -7 5 -4 10 3 6 2 10 -3 10 -5 0 -9 12 -9 26 0 15 -5 29 -10 33 -5 3
-8 13 -8 21 1 8 -5 23 -13 32 -8 10 -12 24 -9 33 4 9 1 15 -9 15 -8 0 -13 4
-10 9 3 5 -1 14 -9 21 -7 6 -12 17 -9 25 3 7 -1 19 -9 26 -8 7 -12 21 -9 31 3
12 -1 18 -12 18 -10 0 -13 6 -10 15 4 8 1 15 -5 15 -6 0 -11 9 -11 20 0 11 -6
23 -14 26 -8 3 -13 14 -11 25 2 11 0 17 -6 14 -5 -4 -9 2 -9 12 0 10 -9 26
-20 36 -11 9 -20 24 -20 32 0 8 -4 15 -10 15 -5 0 -10 7 -10 16 0 9 -9 25 -21
35 -11 10 -18 23 -14 28 3 6 2 11 -4 11 -5 0 -13 10 -17 23 -4 12 -15 28 -26
35 -10 7 -16 18 -12 23 3 5 -6 19 -20 30 -15 11 -24 25 -20 30 3 5 -8 21 -25
35 -17 14 -30 29 -28 33 1 5 -11 24 -28 42 -16 19 -30 37 -30 40 0 3 -12 17
-27 31 -16 14 -28 31 -28 37 0 7 -4 9 -10 6 -5 -3 -10 3 -10 14 0 12 -4 21
-10 21 -5 0 -10 7 -10 16 0 8 -3 13 -7 11 -9 -5 -27 13 -30 30 -4 17 37 3 50
-18z m145 -298 c12 -10 19 -21 15 -25 -4 -4 4 -17 17 -29 14 -12 26 -29 28
-37 2 -8 10 -20 18 -26 7 -6 14 -19 14 -28 0 -9 5 -16 10 -16 6 0 9 -3 8 -7
-4 -12 28 -54 35 -47 4 4 5 -3 2 -14 -2 -12 3 -23 11 -26 9 -3 13 -10 9 -15
-3 -5 -1 -12 5 -16 5 -3 10 -15 10 -26 0 -11 5 -17 10 -14 6 3 10 -3 10 -15 0
-11 6 -23 14 -26 8 -3 12 -13 8 -26 -3 -13 -1 -19 5 -15 6 4 13 0 16 -7 3 -8
1 -17 -6 -20 -7 -2 -4 -5 6 -5 10 -1 16 -5 12 -10 -3 -5 0 -15 7 -23 7 -7 14
-20 16 -28 2 -8 8 -16 13 -18 5 -2 9 -12 9 -23 0 -10 4 -19 9 -19 5 0 8 -12 6
-26 -1 -15 3 -28 12 -31 8 -3 11 -13 8 -24 -4 -12 -1 -21 9 -25 8 -3 13 -14
10 -27 -2 -11 1 -24 7 -28 6 -3 11 -20 11 -37 1 -17 5 -29 10 -26 8 5 10 0 11
-33 1 -10 4 -20 8 -23 10 -7 14 -63 6 -77 -5 -7 0 -16 11 -22 15 -8 18 -19 15
-51 -2 -23 1 -48 7 -55 7 -8 9 -19 5 -25 -3 -5 -2 -10 4 -10 7 0 7 -8 1 -24
-5 -15 -5 -27 3 -35 6 -6 7 -11 1 -11 -5 0 -7 -31 -4 -75 4 -55 1 -79 -8 -89
-13 -13 -14 -23 -11 -80 1 -15 -5 -32 -12 -37 -8 -5 -9 -9 -4 -9 6 0 3 -5 -5
-10 -8 -5 -10 -10 -5 -10 13 0 11 -60 -1 -68 -6 -4 -11 -18 -12 -32 0 -14 -6
-26 -12 -28 -5 -2 -8 -8 -4 -13 3 -5 -1 -12 -9 -15 -8 -3 -13 -15 -12 -28 2
-18 -1 -23 -13 -21 -10 2 -25 4 -35 4 -11 1 -15 5 -11 13 5 8 2 9 -9 5 -9 -3
-19 -2 -23 4 -5 9 -46 30 -64 33 -3 1 -12 6 -20 11 -8 5 -23 10 -33 10 -10 1
-22 7 -27 14 -4 7 -10 12 -14 12 -23 -3 -27 1 -11 12 10 8 15 19 11 25 -4 7
-3 12 3 12 9 0 53 82 55 103 1 4 6 11 11 15 6 4 10 14 10 22 0 8 -4 18 -10 22
-6 5 -5 8 3 8 6 0 12 7 12 15 0 8 4 15 8 15 5 0 7 13 4 29 -2 16 1 32 7 35 7
4 11 42 11 96 0 49 5 92 10 95 6 3 10 52 10 111 0 63 -4 104 -10 104 -6 0 -10
31 -10 74 0 44 -5 78 -11 82 -6 3 -9 19 -7 35 3 16 0 30 -6 32 -5 2 -11 18
-12 35 -1 18 -7 39 -14 47 -7 8 -10 21 -7 29 3 8 -1 20 -9 27 -8 7 -13 18 -10
25 3 8 0 19 -7 26 -7 7 -12 24 -12 38 0 14 -5 24 -11 23 -7 -1 -10 10 -9 27 2
19 -2 30 -10 30 -9 0 -11 8 -8 21 4 15 0 27 -12 35 -14 10 -15 14 -4 14 12 1
12 2 -1 13 -14 11 -19 23 -24 54 -1 7 -5 15 -8 19 -4 3 -4 12 -1 20 3 8 -1 14
-10 14 -8 0 -18 7 -21 16 -4 10 -2 13 7 9 6 -4 5 -1 -4 7 -9 7 -15 24 -14 36
1 13 -3 26 -9 28 -10 4 -20 44 -12 44 2 0 13 -8 24 -19z m-11578 -1791 c0 -16
5 -30 10 -30 6 0 10 -11 10 -24 0 -14 5 -28 10 -31 6 -3 10 -15 10 -26 0 -10
5 -19 11 -19 6 0 8 -7 5 -16 -3 -8 1 -22 8 -30 8 -8 13 -23 11 -33 -2 -11 3
-22 12 -25 9 -4 13 -9 9 -13 -3 -3 1 -17 9 -30 9 -13 13 -23 10 -23 -4 0 1 -7
9 -16 9 -8 14 -20 11 -25 -4 -5 -1 -9 4 -9 6 0 11 -5 11 -12 0 -6 8 -20 18
-31 12 -15 13 -18 2 -12 -12 6 -11 4 2 -11 9 -10 18 -26 20 -34 2 -8 5 -17 8
-20 8 -8 43 -83 46 -98 2 -9 -4 -12 -17 -9 -11 3 -19 0 -19 -6 0 -8 -3 -8 -8
-2 -4 6 -16 10 -27 10 -11 -1 -35 5 -52 12 -18 7 -33 10 -33 7 0 -4 -7 -1 -15
6 -8 7 -24 10 -35 7 -11 -3 -20 -1 -20 4 0 5 -7 9 -16 9 -9 0 -12 5 -8 13 6 9
5 9 -8 -1 -12 -10 -18 -9 -28 3 -7 9 -19 14 -27 11 -7 -3 -13 -1 -13 5 0 6 -4
7 -10 4 -5 -3 -10 -1 -10 5 0 7 -7 10 -15 7 -8 -4 -35 5 -59 19 -25 14 -50 23
-56 19 -6 -3 -13 0 -16 9 -3 8 -11 13 -18 10 -7 -3 -19 2 -26 10 -7 9 -16 13
-21 10 -5 -3 -9 0 -9 5 0 6 -12 11 -26 11 -15 0 -35 9 -44 21 -10 11 -27 21
-38 22 -12 0 -18 5 -16 9 3 4 -4 8 -15 8 -12 0 -21 5 -21 10 0 6 -8 10 -18 10
-9 0 -23 9 -30 20 -7 12 -19 19 -27 18 -7 -2 -14 1 -14 5 0 13 -34 36 -46 30
-5 -2 2 7 18 21 15 14 34 23 42 20 8 -4 26 1 40 10 14 9 25 14 25 12 0 -3 18
1 40 9 22 8 40 11 40 7 0 -4 4 -1 8 5 4 7 19 15 32 17 14 2 26 5 28 7 1 1 6 2
11 3 5 0 12 4 16 8 4 4 14 4 23 1 11 -5 13 -3 7 7 -6 10 -3 12 13 8 12 -4 20
-2 16 3 -4 8 1 10 21 9 3 -1 13 6 21 15 9 8 20 13 25 10 5 -4 9 -2 9 3 0 10
53 36 66 32 4 -1 11 5 16 14 5 9 13 14 17 11 5 -2 14 2 21 10 6 7 18 11 26 8
8 -3 14 0 14 6 0 6 5 11 10 11 6 0 10 -13 10 -30z m2859 -268 c1 -7 6 -10 11
-7 6 3 10 -3 10 -13 0 -23 23 -45 35 -34 5 4 5 2 2 -4 -4 -6 5 -21 18 -34 13
-13 22 -27 19 -31 -2 -5 4 -14 16 -21 11 -7 20 -19 20 -28 0 -8 12 -25 27 -37
14 -13 27 -31 28 -41 0 -9 4 -23 9 -30 4 -6 3 -12 -2 -12 -12 0 -9 -35 5 -52
6 -7 11 -59 11 -118 0 -81 -4 -109 -16 -122 -8 -10 -11 -18 -7 -18 4 0 -6 -14
-23 -30 -18 -17 -31 -34 -29 -39 1 -4 -12 -22 -30 -38 -18 -17 -30 -33 -27
-36 3 -3 -10 -22 -30 -43 -20 -21 -34 -40 -31 -42 2 -2 -10 -17 -26 -33 -16
-15 -29 -33 -29 -39 0 -6 -12 -22 -27 -36 -16 -14 -29 -30 -29 -35 -1 -5 -2
-14 -3 -21 -2 -23 -14 3 -17 37 -1 24 2 35 11 35 9 0 12 9 9 26 -5 29 4 67 14
60 4 -2 7 21 6 52 -1 32 2 62 6 67 12 16 16 105 5 106 -6 0 -6 2 0 5 6 2 9 23
7 45 -3 22 1 46 7 52 13 13 15 51 3 43 -5 -3 -9 8 -10 24 0 17 3 30 8 30 4 0
9 75 10 167 0 91 3 170 6 175 3 4 1 8 -5 8 -6 0 -7 7 -4 17 5 12 3 14 -7 8
-10 -6 -12 1 -8 29 2 21 0 36 -7 37 -5 0 -4 3 3 6 6 2 9 10 5 16 -4 7 7 1 24
-13 18 -14 32 -31 32 -38z"/>
</g>
</svg>
